SplineFontDB: 3.0
FontName: OLAsans
FullName: OLA sans
FamilyName: OLA sans
Weight: Medium
Copyright: Copyright (c) 2014, Raphael Bastide and Metaflop (http://www.metaflop.com), Simon Egli, Marco Mueller, Alexis Reigel, with Reserved Font Name Bespoke. Dual licensed under the GPL v3 (http://www.gnu.org/copyleft/gpl.html) and the OFL v1.1 (http://scripts.sil.org/OFL_web).
Version: 1.0
ItalicAngle: 0
UnderlinePosition: -100
UnderlineWidth: 50
Ascent: 800
Descent: 200
InvalidEm: 0
sfntRevision: 0x00010041
LayerCount: 2
Layer: 0 0 "Arri+AOgA-re" 1
Layer: 1 0 "Avant" 0
XUID: [1021 25 -995700603 12630893]
FSType: 8
OS2Version: 4
OS2_WeightWidthSlopeOnly: 0
OS2_UseTypoMetrics: 1
CreationTime: 1417536033
ModificationTime: 1418126609
PfmFamily: 17
TTFWeight: 500
TTFWidth: 5
LineGap: 90
VLineGap: 0
Panose: 2 0 6 3 0 0 0 0 0 0
OS2TypoAscent: 800
OS2TypoAOffset: 0
OS2TypoDescent: -200
OS2TypoDOffset: 0
OS2TypoLinegap: 90
OS2WinAscent: 1187
OS2WinAOffset: 0
OS2WinDescent: 359
OS2WinDOffset: 0
HheadAscent: 1187
HheadAOffset: 0
HheadDescent: -359
HheadDOffset: 0
OS2SubXSize: 650
OS2SubYSize: 700
OS2SubXOff: 0
OS2SubYOff: 140
OS2SupXSize: 650
OS2SupYSize: 700
OS2SupXOff: 0
OS2SupYOff: 480
OS2StrikeYSize: 49
OS2StrikeYPos: 258
OS2CapHeight: 0
OS2XHeight: 0
OS2Vendor: 'flop'
OS2CodePages: 00000001.00000000
OS2UnicodeRanges: 8000002f.00000100.00000000.00000000
MarkAttachClasses: 1
DEI: 91125
LangName: 1033 "" "" "Regular" "" "" "Version 1.0"
Encoding: UnicodeBmp
UnicodeInterp: none
NameList: AGL For New Fonts
DisplaySize: -48
AntiAlias: 1
FitToEm: 1
WinInfo: 64 32 12
BeginPrivate: 7
BlueValues 30 [-9 0 585 594 900 909 950 950]
OtherBlues 11 [-350 -350]
BlueShift 1 0
StdHW 4 [80]
StdVW 4 [88]
StemSnapH 36 [53 54 71 72 80 115 124 128 135 180]
StemSnapV 30 [58 80 88 114 123 128 180 203]
EndPrivate
TeXData: 1 0 0 462422 231211 154140 613417 1048576 154140 783286 444596 497025 792723 393216 433062 380633 303038 157286 324010 404750 52429 2506097 1059062 262144
BeginChars: 65538 165

StartChar: .notdef
Encoding: 65536 -1 0
Width: 500
Flags: MW
HStem: 0 50<100 400 100 450> 483 50<100 400 100 100>
VStem: 50 50<50 50 50 483> 400 50<50 483 483 483>
LayerCount: 2
Back
Fore
SplineSet
50 0 m 1
 50 533 l 1
 450 533 l 1
 450 0 l 1
 50 0 l 1
100 50 m 1
 400 50 l 1
 400 483 l 1
 100 483 l 1
 100 50 l 1
EndSplineSet
Validated: 1
EndChar

StartChar: exclam
Encoding: 33 33 2
Width: 382
Flags: MW
HStem: 0 115<174.5 207.5> 880 20G<147 235 235 235>
VStem: 134 114<40.5 73.5> 147 88<250 900 250 900>
LayerCount: 2
Back
Fore
SplineSet
147 250 m 1xd0
 147 900 l 1
 235 900 l 1
 235 250 l 1
 147 250 l 1xd0
134 57 m 0xe0
 134 90 158 115 191 115 c 0
 224 115 248 90 248 57 c 0
 248 24 224 0 191 0 c 0
 158 0 134 24 134 57 c 0xe0
EndSplineSet
Validated: 1
EndChar

StartChar: quotedbl
Encoding: 34 34 3
Width: 456
Flags: MW
HStem: 585 315<74 162 74 162 74 294 294 382>
VStem: 74 88<585 900 585 900> 294 88<585 900 585 900>
LayerCount: 2
Back
Fore
SplineSet
74 900 m 1
 162 900 l 1
 162 585 l 1
 74 585 l 1
 74 900 l 1
382 900 m 1
 382 585 l 1
 294 585 l 1
 294 900 l 1
 382 900 l 1
EndSplineSet
Validated: 1
EndChar

StartChar: ampersand
Encoding: 38 38 4
Width: 941
Flags: MW
HStem: -9 80<425 473 468 473> 410 80<436.5 912 473 721 809 912 809 809> 829 80<436.5 473 468 473>
VStem: 132 88<215 265 215 275.5 634 684> 721 88<240 410>
CounterMasks: 1 e0
LayerCount: 2
Back
Fore
SplineSet
277 450 m 1
 199 487 132 565 132 659 c 0
 132 730 169 796 226 839 c 0
 295 890 382 909 468 909 c 2
 473 909 l 2
 559 909 646 890 715 839 c 0
 735 824 753 807 767 787 c 1
 697 736 l 1
 685 754 669 770 651 782 c 0
 599 818 536 829 473 829 c 2
 468 829 l 2
 405 829 342 818 290 782 c 0
 249 754 220 709 220 659 c 0
 220 609 249 565 291 537 c 0
 344 501 408 490 473 490 c 2
 912 490 l 1
 912 410 l 1
 809 410 l 1
 809 240 l 2
 809 169 772 104 715 61 c 0
 646 10 559 -9 473 -9 c 2
 468 -9 l 2
 382 -9 295 10 226 61 c 0
 169 104 132 169 132 240 c 0
 132 311 169 377 226 420 c 0
 242 432 259 441 277 450 c 1
721 410 m 1
 468 410 l 2
 405 410 342 399 290 363 c 0
 249 335 220 290 220 240 c 0
 220 190 249 146 290 118 c 0
 342 82 405 71 468 71 c 2
 473 71 l 2
 536 71 599 82 651 118 c 0
 692 146 721 190 721 240 c 2
 721 410 l 1
EndSplineSet
Validated: 1
EndChar

StartChar: plus
Encoding: 43 43 5
Width: 750
Flags: MW
HStem: 0 21G<331 419 331 331> 252 80<74 331 74 331 419 676> 565 20G<331 419 419 419>
VStem: 331 88<0 252 0 252 332 585>
LayerCount: 2
Back
Fore
SplineSet
331 585 m 1
 419 585 l 1
 419 332 l 1
 676 332 l 1
 676 252 l 1
 419 252 l 1
 419 0 l 1
 331 0 l 1
 331 252 l 1
 74 252 l 1
 74 332 l 1
 331 332 l 1
 331 585 l 1
EndSplineSet
Validated: 1
EndChar

StartChar: comma
Encoding: 44 44 6
Width: 309
Flags: MW
HStem: -140 255<102 123 41 221>
VStem: 41 180
LayerCount: 2
Back
Fore
SplineSet
102 115 m 1
 221 115 l 1
 123 -140 l 1
 41 -140 l 1
 102 115 l 1
EndSplineSet
Validated: 1
EndChar

StartChar: hyphen
Encoding: 45 45 7
Width: 463
Flags: MW
HStem: 252 80<59 404 59 404>
LayerCount: 2
Back
Fore
SplineSet
59 252 m 1
 59 332 l 1
 404 332 l 1
 404 252 l 1
 59 252 l 1
EndSplineSet
Validated: 1
EndChar

StartChar: period
Encoding: 46 46 8
Width: 323
Flags: MW
HStem: 0 115<145.5 178.5>
VStem: 104 115<40.5 73.5>
LayerCount: 2
Back
Fore
SplineSet
104 57 m 0
 104 90 129 115 162 115 c 0
 195 115 219 90 219 57 c 0
 219 24 195 0 162 0 c 0
 129 0 104 24 104 57 c 0
EndSplineSet
Validated: 1
EndChar

StartChar: zero
Encoding: 48 48 9
Width: 720
Flags: MW
HStem: -9 80<313.5 362 358 362> 829 80<325 362 358 362>
VStem: 59 88<402.5 497.5 402.5 508> 574 88<402.5 497.5>
LayerCount: 2
Back
Fore
SplineSet
362 829 m 2
 358 829 l 2
 292 829 239 781 206 723 c 0
 160 640 147 545 147 450 c 0
 147 355 160 260 206 177 c 0
 239 119 292 71 358 71 c 2
 362 71 l 2
 428 71 481 119 514 177 c 0
 560 260 574 355 574 450 c 0
 574 545 560 640 514 723 c 0
 481 781 428 829 362 829 c 2
362 909 m 2
 451 909 529 855 578 780 c 0
 641 683 662 566 662 450 c 0
 662 334 641 217 578 120 c 0
 529 45 451 -9 362 -9 c 2
 358 -9 l 2
 269 -9 192 45 143 120 c 0
 80 217 59 334 59 450 c 0
 59 566 80 683 143 780 c 0
 192 855 269 909 358 909 c 2
 362 909 l 2
EndSplineSet
Validated: 1
EndChar

StartChar: one
Encoding: 49 49 10
Width: 573
Flags: MW
HStem: 0 21G<265 265 265 353> 880 20G<269 353 353 353>
VStem: 265 88<0 777 777 777>
LayerCount: 2
Back
Fore
SplineSet
265 0 m 1
 265 777 l 1
 88 601 l 1
 88 719 l 1
 269 900 l 1
 353 900 l 1
 353 0 l 1
 265 0 l 1
EndSplineSet
Validated: 1
EndChar

StartChar: two
Encoding: 50 50 11
Width: 698
Flags: MW
HStem: 0 80<162 625 59 59> 829 80<315 344 340 344>
VStem: 537 88<598.5 686.5>
LayerCount: 2
Back
Fore
SplineSet
77 757 m 1
 90 789 110 818 137 841 c 0
 192 889 266 909 340 909 c 2
 344 909 l 2
 418 909 491 889 546 841 c 0
 597 797 625 731 625 664 c 0
 625 497 468 394 352 275 c 2
 162 80 l 1
 625 80 l 1
 625 0 l 1
 59 0 l 1
 59 80 l 1
 327 355 l 2
 418 448 537 533 537 664 c 0
 537 709 518 753 483 783 c 0
 445 816 394 829 344 829 c 2
 340 829 l 2
 290 829 239 816 201 783 c 0
 182 767 168 747 159 725 c 1
 77 757 l 1
EndSplineSet
Validated: 1
EndChar

StartChar: three
Encoding: 51 51 12
Width: 684
Flags: MW
HStem: -9 80<288 329 325 329> 410 80<326 329 326 329> 829 80<289.5 329 325 329>
VStem: 522 88<216.5 263.5 635.5 682.5>
CounterMasks: 1 e0
LayerCount: 2
Back
Fore
SplineSet
325 829 m 2
 254 829 186 798 155 744 c 1
 79 787 l 1
 91 806 106 824 123 839 c 0
 178 888 251 909 325 909 c 2
 329 909 l 2
 403 909 476 888 531 839 c 0
 582 794 610 727 610 659 c 0
 610 591 582 525 531 480 c 0
 518 468 504 459 489 450 c 1
 504 441 518 432 531 420 c 0
 582 375 610 308 610 240 c 0
 610 172 582 106 531 61 c 0
 476 12 403 -9 329 -9 c 2
 325 -9 l 2
 251 -9 178 12 123 61 c 0
 106 76 91 94 79 113 c 1
 154 159 l 1
 162 144 173 130 186 118 c 0
 224 85 274 71 325 71 c 2
 329 71 l 2
 380 71 430 85 468 118 c 0
 503 149 522 193 522 240 c 0
 522 287 503 332 468 363 c 0
 430 396 380 410 329 410 c 2
 326 410 l 1
 326 490 l 1
 329 490 l 2
 380 490 430 504 468 537 c 0
 503 568 522 612 522 659 c 0
 522 706 503 751 468 782 c 0
 430 815 380 829 329 829 c 2
 325 829 l 2
EndSplineSet
Validated: 1
EndChar

StartChar: four
Encoding: 52 52 13
Width: 713
Flags: MW
HStem: 0 21G<459 547 459 459> 230 80<150 459 48 48 547 680> 880 20G<467 547 547 547>
VStem: 459 88<0 230 0 230 310 745 745 745>
LayerCount: 2
Back
Fore
SplineSet
547 230 m 1
 547 0 l 1
 459 0 l 1
 459 230 l 1
 48 230 l 1
 48 310 l 1
 467 900 l 1
 547 900 l 1
 547 310 l 1
 680 310 l 1
 680 230 l 1
 547 230 l 1
459 310 m 1
 459 745 l 1
 150 310 l 1
 459 310 l 1
EndSplineSet
Validated: 1
EndChar

StartChar: five
Encoding: 53 53 14
Width: 706
Flags: MW
HStem: -9 80<303 348 343 348> 500 80<324 369 366 369> 820 80<176 603 176 176>
VStem: 88 88<493 820> 559 88<257.5 314>
LayerCount: 2
Back
Fore
SplineSet
343 -9 m 2
 263 -9 185 17 128 73 c 0
 103 97 85 126 71 157 c 1
 151 192 l 1
 161 169 173 149 191 131 c 0
 231 91 286 71 343 71 c 2
 348 71 l 2
 405 71 460 91 500 131 c 0
 540 172 559 229 559 286 c 0
 559 342 543 398 506 440 c 0
 472 479 421 500 369 500 c 2
 366 500 l 2
 282 500 207 449 176 371 c 1
 88 371 l 1
 88 900 l 1
 603 900 l 1
 603 820 l 1
 176 820 l 1
 176 493 l 1
 222 547 291 580 366 580 c 2
 369 580 l 2
 444 580 518 553 569 498 c 0
 622 441 647 364 647 286 c 0
 647 207 619 128 563 73 c 0
 506 17 428 -9 348 -9 c 2
 343 -9 l 2
EndSplineSet
Validated: 1
EndChar

StartChar: six
Encoding: 54 54 15
Width: 720
Flags: MW
HStem: -9 80<318.5 362 358 362> 455 80<330 362 358 362> 829 80<305 340 336 340>
VStem: 59 88<263 289 431 450> 574 88<237 289>
LayerCount: 2
Back
Fore
SplineSet
147 431 m 1
 192 495 274 535 358 535 c 2
 362 535 l 2
 441 535 520 512 578 459 c 0
 633 409 662 337 662 263 c 0
 662 189 633 117 578 67 c 0
 520 14 441 -9 362 -9 c 2
 358 -9 l 2
 279 -9 201 14 143 67 c 0
 88 117 59 189 59 263 c 2
 59 450 l 2
 59 565 76 681 136 780 c 0
 180 853 252 909 336 909 c 2
 340 909 l 2
 416 909 489 879 540 823 c 0
 555 807 567 789 577 770 c 1
 501 728 l 1
 471 784 411 829 340 829 c 2
 336 829 l 2
 274 829 228 779 200 723 c 0
 158 639 147 544 147 450 c 2
 147 431 l 1
147 263 m 0
 147 211 167 160 206 125 c 0
 247 88 302 71 358 71 c 2
 362 71 l 2
 418 71 473 88 514 125 c 0
 553 160 574 211 574 263 c 0
 574 315 553 366 514 401 c 0
 473 438 418 455 362 455 c 2
 358 455 l 2
 302 455 247 438 206 401 c 0
 167 366 147 315 147 263 c 0
EndSplineSet
Validated: 1
EndChar

StartChar: seven
Encoding: 55 55 16
Width: 698
Flags: MW
HStem: 0 21G<59 158 59 59> 820 80<59 625 59 526 59 625>
LayerCount: 2
Back
Fore
SplineSet
59 820 m 1
 59 900 l 1
 625 900 l 1
 625 820 l 1
 158 0 l 1
 59 0 l 1
 526 820 l 1
 59 820 l 1
EndSplineSet
Validated: 1
EndChar

StartChar: eight
Encoding: 56 56 17
Width: 713
Flags: MW
HStem: -9 80<318 358 355 358> 432 80<329.5 358 355 358> 829 80<333.5 358 355 358>
VStem: 74 88<227.5 276.5 227.5 287.5> 105 88<649.5 692.5 649.5 703> 520 88<649.5 692.5> 551 88<227.5 276.5>
LayerCount: 2
Back
Fore
SplineSet
355 71 m 2xf2
 358 71 l 2
 409 71 460 87 497 122 c 0
 533 155 551 203 551 252 c 0
 551 301 533 349 497 382 c 0
 460 417 409 432 358 432 c 2
 355 432 l 2
 304 432 253 417 216 382 c 0
 180 349 162 301 162 252 c 0
 162 203 180 155 216 122 c 0
 253 87 304 71 355 71 c 2xf2
355 -9 m 2
 281 -9 206 13 152 64 c 0
 100 112 74 181 74 252 c 0xf2
 74 323 100 391 152 439 c 0
 168 454 184 466 203 476 c 1
 193 483 184 490 175 499 c 0
 128 543 105 607 105 671 c 0
 105 735 128 798 175 842 c 0
 223 888 289 909 355 909 c 2
 358 909 l 2
 424 909 490 888 538 842 c 0
 585 798 608 735 608 671 c 0xec
 608 607 585 543 538 499 c 0
 529 490 520 483 510 476 c 1
 529 466 545 454 561 439 c 0
 613 391 639 323 639 252 c 0
 639 181 613 112 561 64 c 0
 507 13 432 -9 358 -9 c 2
 355 -9 l 2
358 512 m 2
 401 512 444 527 475 557 c 0
 505 587 520 628 520 671 c 0
 520 714 505 755 475 785 c 0
 444 815 401 829 358 829 c 2
 355 829 l 2
 312 829 269 815 238 785 c 0
 208 755 193 714 193 671 c 0xec
 193 628 208 587 238 557 c 0
 269 527 312 512 355 512 c 2
 358 512 l 2
EndSplineSet
Validated: 1
EndChar

StartChar: nine
Encoding: 57 57 18
Width: 706
Flags: MW
HStem: -9 80<317.5 362 358 362> 365 80<318.5 362 358 362> 829 80<330 362 358 362>
VStem: 59 88<611 663 611 674> 574 88<450 470 470 470 611 637>
LayerCount: 2
Back
Fore
SplineSet
102 130 m 1
 177 174 l 1
 185 160 195 147 206 135 c 0
 245 93 301 71 358 71 c 2
 362 71 l 2
 428 71 481 119 514 177 c 0
 560 260 574 355 574 450 c 2
 574 470 l 1
 567 460 559 450 550 441 c 0
 501 390 432 365 362 365 c 2
 358 365 l 2
 279 365 201 388 143 441 c 0
 88 491 59 563 59 637 c 0
 59 711 88 783 143 833 c 0
 201 886 279 909 358 909 c 2
 362 909 l 2
 441 909 520 886 578 833 c 0
 633 783 662 711 662 637 c 2
 662 450 l 2
 662 334 641 217 578 120 c 0
 529 45 451 -9 362 -9 c 2
 358 -9 l 2
 277 -9 199 19 143 77 c 0
 127 93 113 111 102 130 c 1
574 637 m 0
 574 689 553 740 514 775 c 0
 473 812 418 829 362 829 c 2
 358 829 l 2
 302 829 247 812 206 775 c 0
 167 740 147 689 147 637 c 0
 147 585 167 534 206 499 c 0
 247 462 302 445 358 445 c 2
 362 445 l 2
 418 445 473 462 514 499 c 0
 553 534 574 585 574 637 c 0
EndSplineSet
Validated: 1
EndChar

StartChar: colon
Encoding: 58 58 19
Width: 323
Flags: MW
HStem: 0 115<145.5 178.5> 470 115<145.5 178.5>
VStem: 104 115<40.5 73.5 511.5 544.5>
LayerCount: 2
Back
Fore
SplineSet
104 57 m 0
 104 90 129 115 162 115 c 0
 195 115 219 90 219 57 c 0
 219 24 195 0 162 0 c 0
 129 0 104 24 104 57 c 0
104 528 m 0
 104 561 129 585 162 585 c 0
 195 585 219 561 219 528 c 0
 219 495 195 470 162 470 c 0
 129 470 104 495 104 528 c 0
EndSplineSet
Validated: 1
EndChar

StartChar: semicolon
Encoding: 59 59 20
Width: 331
Flags: MW
HStem: 470 115<152.5 185.5>
VStem: 112 114<511.5 544.5>
LayerCount: 2
Back
Fore
SplineSet
109 115 m 1
 229 115 l 1
 130 -140 l 1
 48 -140 l 1
 109 115 l 1
112 528 m 0
 112 561 136 585 169 585 c 0
 202 585 226 561 226 528 c 0
 226 495 202 470 169 470 c 0
 136 470 112 495 112 528 c 0
EndSplineSet
Validated: 1
EndChar

StartChar: question
Encoding: 63 63 21
Width: 676
Flags: MW
HStem: 0 115<321.5 354.5> 829 80<303 340 336 340>
VStem: 281 114<40.5 73.5> 294 88<250 413 250 490 250 490> 515 88<636 682>
LayerCount: 2
Back
Fore
SplineSet
336 829 m 2xd8
 270 829 210 797 183 746 c 1
 106 787 l 1
 117 806 131 823 147 839 c 0
 198 887 266 909 336 909 c 2
 340 909 l 2
 410 909 478 887 529 839 c 0
 578 793 603 726 603 659 c 0
 603 592 578 526 529 480 c 0
 488 442 437 420 382 413 c 1
 382 250 l 1
 294 250 l 1
 294 490 l 1
 340 490 l 2
 387 490 433 505 466 537 c 0
 499 569 515 613 515 659 c 0
 515 705 499 750 466 782 c 0
 433 814 387 829 340 829 c 2
 336 829 l 2xd8
281 57 m 0xe8
 281 90 305 115 338 115 c 0
 371 115 395 90 395 57 c 0
 395 24 371 0 338 0 c 0
 305 0 281 24 281 57 c 0xe8
EndSplineSet
Validated: 1
EndChar

StartChar: A
Encoding: 65 65 22
Width: 816
Flags: MW
HStem: 0 21G<15 15 15 98> 252 80<228 580 228 611 197 580> 880 20G<368 448 448 448>
LayerCount: 2
Back
Fore
SplineSet
15 0 m 1
 368 900 l 1
 448 900 l 1
 861 -150 l 1
 770 -150 l 1
 611 252 l 1
 197 252 l 1
 98 0 l 1
 15 0 l 1
228 332 m 1
 580 332 l 1
 404 779 l 1
 228 332 l 1
EndSplineSet
Validated: 1
EndChar

StartChar: B
Encoding: 66 66 23
Width: 772
Flags: MW
HStem: 0 80<191 406 191 406> 433 80<191 406 191 406> 820 80<191 191 191 406>
VStem: 103 88<80 433 513 820> 578 88<645 687> 618 88<231.5 280.5>
LayerCount: 2
Back
Fore
SplineSet
666 666 m 0xf8
 666 589 626 517 567 478 c 1
 587 468 605 456 622 441 c 0
 676 395 706 327 706 256 c 0xf4
 706 185 676 118 622 72 c 0
 563 21 484 0 406 0 c 2
 103 0 l 1
 103 900 l 1
 406 900 l 2
 474 900 542 881 593 835 c 0
 640 792 666 730 666 666 c 0xf8
191 820 m 1
 191 513 l 1
 406 513 l 2
 451 513 497 526 530 556 c 0
 561 584 578 624 578 666 c 0xf8
 578 708 561 749 530 777 c 0
 497 807 451 820 406 820 c 2
 191 820 l 1
191 433 m 1
 191 80 l 1
 406 80 l 2
 461 80 516 94 558 129 c 0
 596 160 618 207 618 256 c 0xf4
 618 305 596 352 558 383 c 0
 516 418 461 433 406 433 c 2
 191 433 l 1
EndSplineSet
Validated: 1
EndChar

StartChar: C
Encoding: 67 67 24
Width: 992
Flags: MW
HStem: -9 80<451 518 511 518> 829 80<462.5 518 511 518>
VStem: 66 88<400 500 400 511>
LayerCount: 2
Back
Fore
SplineSet
896 706 m 1
 821 661 l 1
 808 683 793 704 775 723 c 0
 709 793 615 829 518 829 c 2
 511 829 l 2
 414 829 320 793 254 723 c 0
 185 650 154 550 154 450 c 0
 154 350 185 250 254 177 c 0
 320 107 414 71 511 71 c 2
 518 71 l 2
 615 71 709 107 775 177 c 0
 793 196 808 217 821 239 c 1
 896 194 l 1
 880 167 860 143 838 120 c 0
 755 34 638 -9 518 -9 c 2
 511 -9 l 2
 391 -9 274 34 191 120 c 0
 106 208 66 328 66 450 c 0
 66 572 106 692 191 780 c 0
 274 866 391 909 511 909 c 2
 518 909 l 2
 638 909 755 866 838 780 c 0
 860 757 880 733 896 706 c 1
EndSplineSet
Validated: 1
EndChar

StartChar: D
Encoding: 68 68 25
Width: 919
Flags: MW
HStem: 0 80<191 395 191 395> 820 80<191 191 191 395>
VStem: 103 88<80 820 80 900 80 900> 765 88<400.5 499.5>
LayerCount: 2
Back
Fore
SplineSet
103 0 m 1
 103 900 l 1
 395 900 l 2
 517 900 638 860 725 774 c 0
 811 689 853 571 853 450 c 0
 853 329 811 211 725 126 c 0
 638 40 517 0 395 0 c 2
 103 0 l 1
191 820 m 1
 191 80 l 1
 395 80 l 2
 494 80 591 114 661 184 c 0
 731 254 765 351 765 450 c 0
 765 549 731 646 661 716 c 0
 591 786 494 820 395 820 c 2
 191 820 l 1
EndSplineSet
Validated: 1
EndChar

StartChar: E
Encoding: 69 69 26
Width: 684
Flags: MW
HStem: 0 80<191 632 191 632> 410 80<191 588 191 588> 820 80<191 632 191 191>
VStem: 103 88<80 410 490 820>
CounterMasks: 1 e0
LayerCount: 2
Back
Fore
SplineSet
103 0 m 1
 103 900 l 1
 632 900 l 1
 632 820 l 1
 191 820 l 1
 191 490 l 1
 588 490 l 1
 588 410 l 1
 191 410 l 1
 191 80 l 1
 632 80 l 1
 632 0 l 1
 103 0 l 1
EndSplineSet
Validated: 1
EndChar

StartChar: F
Encoding: 70 70 27
Width: 647
Flags: MW
HStem: 0 21G<103 103 103 191> 410 80<191 588 191 588> 820 80<191 632 191 191>
VStem: 103 88<0 410 490 820>
LayerCount: 2
Back
Fore
SplineSet
103 0 m 1
 103 900 l 1
 632 900 l 1
 632 820 l 1
 191 820 l 1
 191 490 l 1
 588 490 l 1
 588 410 l 1
 191 410 l 1
 191 0 l 1
 103 0 l 1
EndSplineSet
Validated: 1
EndChar

StartChar: G
Encoding: 71 71 28
Width: 1044
Flags: MW
HStem: -9 80<451 518 511 518> 0 21G<875 963 875 875> 410 80<515 873 515 963> 829 80<462.5 518 511 518>
VStem: 66 88<400 500 400 511> 875 88<0 164 164 164>
LayerCount: 2
Back
Fore
SplineSet
963 0 m 1x7c
 875 0 l 1x7c
 875 164 l 1
 864 149 851 134 838 120 c 0
 755 34 638 -9 518 -9 c 2
 511 -9 l 2
 391 -9 274 34 191 120 c 0
 106 208 66 328 66 450 c 0
 66 572 106 692 191 780 c 0
 274 866 391 909 511 909 c 2
 518 909 l 2
 638 909 755 866 838 780 c 0
 846 771 855 763 862 754 c 1
 795 699 l 1
 732 780 627 829 518 829 c 2
 511 829 l 2
 414 829 320 793 254 723 c 0
 185 650 154 550 154 450 c 0
 154 350 185 250 254 177 c 0
 320 107 414 71 511 71 c 2
 518 71 l 2xbc
 615 71 709 107 775 177 c 0
 835 240 866 324 873 410 c 1
 515 410 l 1
 515 490 l 1
 963 490 l 1
 963 0 l 1x7c
EndSplineSet
Validated: 1
EndChar

StartChar: H
Encoding: 72 72 29
Width: 882
Flags: MW
HStem: 0 21G<103 103 103 191 691 691 691 779> 410 80<191 691 191 691> 880 20G<103 191 191 191 691 779 779 779>
VStem: 103 88<0 410 490 900> 691 88<0 410 410 410 490 900 0 900>
LayerCount: 2
Back
Fore
SplineSet
103 0 m 1
 103 900 l 1
 191 900 l 1
 191 490 l 1
 691 490 l 1
 691 900 l 1
 779 900 l 1
 779 0 l 1
 691 0 l 1
 691 410 l 1
 191 410 l 1
 191 0 l 1
 103 0 l 1
EndSplineSet
Validated: 1
EndChar

StartChar: I
Encoding: 73 73 30
Width: 323
Flags: MW
HStem: 0 21G<118 118 118 206> 880 20G<118 206 206 206>
VStem: 118 88<0 900 0 900>
LayerCount: 2
Back
Fore
SplineSet
118 0 m 1
 118 900 l 1
 206 900 l 1
 206 0 l 1
 118 0 l 1
EndSplineSet
Validated: 1
EndChar

StartChar: J
Encoding: 74 74 31
Width: 647
Flags: MW
HStem: -9 80<240.5 270 266 270> 880 20G<463 551 551 551>
VStem: 463 88<278 900>
LayerCount: 2
Back
Fore
SplineSet
551 900 m 1
 551 278 l 2
 551 201 527 126 473 71 c 0
 420 17 346 -9 270 -9 c 2
 266 -9 l 2
 215 -9 164 3 120 28 c 1
 162 101 l 1
 193 81 229 71 266 71 c 2
 270 71 l 2
 322 71 373 91 409 129 c 0
 446 169 463 223 463 278 c 2
 463 900 l 1
 551 900 l 1
EndSplineSet
Validated: 1
EndChar

StartChar: K
Encoding: 75 75 32
Width: 779
Flags: MW
HStem: 0 21G<103 191 103 103 674 779 674 674> 880 20G<103 191 191 191 664 779 779 779>
VStem: 103 88<0 341 450 900>
LayerCount: 2
Back
Fore
SplineSet
103 900 m 1
 191 900 l 1
 191 450 l 1
 664 900 l 1
 779 900 l 1
 416 555 l 1
 779 0 l 1
 674 0 l 1
 357 499 l 1
 191 341 l 1
 191 0 l 1
 103 0 l 1
 103 900 l 1
EndSplineSet
Validated: 1
EndChar

StartChar: L
Encoding: 76 76 33
Width: 632
Flags: HMW
HStem: 0 80<191 632 191 632> 880 20G
VStem: 103 88<80 1020 80 1020 80 1020>
LayerCount: 2
Back
Fore
SplineSet
103 0 m 1
 103 1020 l 1
 191 1020 l 1
 191 80 l 1
 592 80 l 5
 592 0 l 5
 103 0 l 1
EndSplineSet
Validated: 1
EndChar

StartChar: M
Encoding: 77 77 34
Width: 1139
Flags: MW
HStem: 0 21G<103 103 103 183 526 526 526 606 948 948 948 1036> 880 20G<103 183 183 183 956 1036 1036 1036>
VStem: 103 80<0 706 0 900> 948 88<0 707 707 707>
LayerCount: 2
Back
Fore
SplineSet
103 0 m 1
 103 900 l 1
 183 900 l 1
 570 102 l 1
 956 900 l 1
 1036 900 l 1
 1036 0 l 1
 948 0 l 1
 948 707 l 1
 606 0 l 1
 526 0 l 1
 183 706 l 1
 183 0 l 1
 103 0 l 1
EndSplineSet
Validated: 1
EndChar

StartChar: N
Encoding: 78 78 35
Width: 919
Flags: MW
HStem: 0 21G<107 107 107 187 732 732 732 812> 880 20G<107 187 187 187 732 812 812 812>
VStem: 107 80<0 763 0 900> 732 80<0 900 137 900 0 900>
LayerCount: 2
Back
Fore
SplineSet
107 0 m 1
 107 900 l 1
 187 900 l 1
 732 137 l 1
 732 900 l 1
 812 900 l 1
 812 0 l 1
 732 0 l 1
 187 763 l 1
 187 0 l 1
 107 0 l 1
EndSplineSet
Validated: 1
EndChar

StartChar: O
Encoding: 79 79 36
Width: 1029
Flags: HMW
HStem: -9 80 829 80
VStem: 66 88 875 88
LayerCount: 2
Back
Fore
SplineSet
518 -23 m 1
 84 220 l 1
 84 686 l 1
 514 929 l 1
 945 686 l 5
 945 220 l 5
 518 -23 l 1
518 78 m 1
 856 270 l 5
 856 635 l 5
 518 827 l 1
 173 635 l 1
 172 270 l 1
 518 78 l 1
EndSplineSet
Validated: 1
EndChar

StartChar: P
Encoding: 80 80 37
Width: 750
Flags: MW
HStem: 0 21G<103 103 103 191> 320 80<191 385 191 385> 820 80<191 191 191 385>
VStem: 103 88<0 320 0 400 400 820> 618 88<581.5 638.5>
LayerCount: 2
Back
Fore
SplineSet
103 0 m 1
 103 900 l 1
 385 900 l 2
 469 900 553 876 616 819 c 0
 675 766 706 689 706 610 c 0
 706 531 675 454 616 401 c 0
 553 344 469 320 385 320 c 2
 191 320 l 1
 191 0 l 1
 103 0 l 1
191 820 m 1
 191 400 l 1
 385 400 l 2
 446 400 507 418 552 459 c 0
 595 497 618 553 618 610 c 0
 618 667 595 723 552 761 c 0
 507 802 446 820 385 820 c 2
 191 820 l 1
EndSplineSet
Validated: 1
EndChar

StartChar: Q
Encoding: 81 81 38
Width: 1021
Flags: HMW
HStem: -9 80<443 510 503 510> 0 21G<859 963 859 859> 829 80<454.5 510 503 510>
VStem: 58 88<400 500 400 511> 867 88<403 500>
LayerCount: 2
Back
Fore
SplineSet
510 829 m 2xb8
 503 829 l 2
 406 829 312 793 246 723 c 0
 177 650 146 550 146 450 c 4
 146 350 177 250 246 177 c 0
 312 107 406 71 503 71 c 2
 510 71 l 2
 587 71 663 94 724 139 c 1
 597 269 l 1
 701 269 l 1
 778 190 l 1
 839 262 867 356 867 450 c 0
 867 550 836 650 767 723 c 0
 701 793 607 829 510 829 c 2xb8
510 909 m 2
 630 909 747 866 830 780 c 0
 915 692 955 572 955 450 c 0
 955 332 918 215 838 128 c 1
 963 0 l 1
 859 0 l 1x78
 783 78 l 1
 706 20 609 -9 510 -9 c 2
 503 -9 l 2
 383 -9 266 34 183 120 c 0
 98 208 58 328 58 450 c 0
 58 572 98 692 183 780 c 0
 266 866 383 909 503 909 c 2
 510 909 l 2
EndSplineSet
Validated: 1
EndChar

StartChar: R
Encoding: 82 82 39
Width: 742
Flags: MW
HStem: 0 21G<103 103 103 191 602 602 602 706> 365 80<191 385 385 400 191 385> 820 80<191 191 191 385>
VStem: 103 88<0 365 0 445 445 820> 618 88<605.5 658.5>
LayerCount: 2
Back
Fore
SplineSet
103 0 m 1
 103 900 l 1
 385 900 l 2
 468 900 552 878 616 825 c 0
 673 777 706 706 706 632 c 0
 706 558 673 488 616 440 c 0
 580 409 536 388 490 377 c 1
 706 0 l 1
 602 0 l 1
 400 365 l 1
 191 365 l 1
 191 0 l 1
 103 0 l 1
191 820 m 1
 191 445 l 1
 385 445 l 2
 445 445 505 459 552 497 c 0
 593 530 618 579 618 632 c 0
 618 685 593 734 552 767 c 0
 505 805 445 820 385 820 c 2
 191 820 l 1
EndSplineSet
Validated: 1
EndChar

StartChar: S
Encoding: 83 83 40
Width: 757
Flags: MW
HStem: -9 80<336 380 377 380> 410 80<293.5 390 367 390> 829 80<325.5 380 377 380>
VStem: 94 88<608.5 708.5 608.5 731> 610 88<186.5 294.5>
CounterMasks: 1 e0
LayerCount: 2
Back
Fore
SplineSet
377 -9 m 2
 295 -9 212 10 148 61 c 0
 119 84 95 112 80 145 c 1
 159 182 l 1
 170 157 188 135 211 118 c 0
 258 83 318 71 377 71 c 2
 380 71 l 2
 497 71 610 133 610 240 c 0
 610 349 492 410 371 410 c 2
 367 410 l 2
 220 410 94 517 94 659 c 0
 94 803 226 909 377 909 c 2
 380 909 l 2
 454 909 528 888 584 839 c 0
 611 816 631 787 644 755 c 1
 564 721 l 1
 555 744 540 765 521 782 c 0
 483 815 431 829 380 829 c 2
 377 829 l 2
 274 829 182 758 182 659 c 0
 182 558 279 490 386 490 c 2
 390 490 l 2
 550 490 698 390 698 240 c 0
 698 88 544 -9 380 -9 c 2
 377 -9 l 2
EndSplineSet
Validated: 1
EndChar

StartChar: T
Encoding: 84 84 41
Width: 676
Flags: MW
HStem: 0 21G<294 382 294 294> 820 80<4 672 4 294 382 382 382 672>
VStem: 294 88<0 820 0 820>
LayerCount: 2
Back
Fore
SplineSet
4 820 m 1
 4 900 l 1
 672 900 l 1
 672 820 l 1
 382 820 l 1
 382 0 l 1
 294 0 l 1
 294 820 l 1
 4 820 l 1
EndSplineSet
Validated: 1
EndChar

StartChar: U
Encoding: 85 85 42
Width: 867
Flags: MW
HStem: -9 80<386 436 431 436> 880 20G<96 184 184 184 684 772 772 772>
VStem: 96 88<320 900> 684 88<320 900>
LayerCount: 2
Back
Fore
SplineSet
772 900 m 1
 772 320 l 2
 772 232 741 145 678 83 c 0
 614 20 526 -9 436 -9 c 2
 431 -9 l 2
 341 -9 254 20 190 83 c 0
 127 145 96 232 96 320 c 2
 96 900 l 1
 184 900 l 1
 184 320 l 2
 184 253 206 188 253 141 c 0
 300 94 365 71 431 71 c 2
 436 71 l 2
 502 71 567 94 614 141 c 0
 661 188 684 253 684 320 c 2
 684 900 l 1
 772 900 l 1
EndSplineSet
Validated: 1
EndChar

StartChar: V
Encoding: 86 86 43
Width: 735
Flags: MW
HStem: 0 21G<328 408 328 328> 880 20G<-7 84 84 84 659 742 742 742>
LayerCount: 2
Back
Fore
SplineSet
-7 900 m 1
 84 900 l 1
 372 126 l 1
 659 900 l 1
 742 900 l 1
 408 0 l 1
 328 0 l 1
 -7 900 l 1
EndSplineSet
Validated: 1
EndChar

StartChar: W
Encoding: 87 87 44
Width: 1117
Flags: MW
HStem: 0 21G<346 426 346 346 691 771 691 691> 880 20G<0 91 91 91 346 437 437 437 688 771 771 771 1034 1117 1117 1117>
LayerCount: 2
Back
Fore
SplineSet
0 900 m 1
 91 900 l 1
 390 123 l 1
 517 454 l 1
 346 900 l 1
 437 900 l 1
 563 573 l 1
 688 900 l 1
 771 900 l 1
 604 465 l 1
 736 123 l 1
 1034 900 l 1
 1117 900 l 1
 771 0 l 1
 691 0 l 1
 558 346 l 1
 426 0 l 1
 346 0 l 1
 0 900 l 1
EndSplineSet
Validated: 1
EndChar

StartChar: X
Encoding: 88 88 45
Width: 698
Flags: MW
HStem: 0 21G<-7 89 -7 -7 599 706 599 599> 880 20G<17 123 123 123 583 679 679 679>
LayerCount: 2
Back
Fore
SplineSet
17 900 m 1
 123 900 l 1
 352 547 l 1
 583 900 l 1
 679 900 l 1
 399 473 l 1
 706 0 l 1
 599 0 l 1
 346 392 l 1
 89 0 l 1
 -7 0 l 1
 298 465 l 1
 17 900 l 1
EndSplineSet
Validated: 1
EndChar

StartChar: Y
Encoding: 89 89 46
Width: 735
Flags: MW
HStem: 0 21G<323 412 323 323> 880 20G<-7 93 93 93 651 742 742 742>
VStem: 323 89<0 337 0 337>
LayerCount: 2
Back
Fore
SplineSet
-7 900 m 1
 93 900 l 1
 372 425 l 1
 651 900 l 1
 742 900 l 1
 412 337 l 1
 412 0 l 1
 323 0 l 1
 323 337 l 1
 -7 900 l 1
EndSplineSet
Validated: 1
EndChar

StartChar: Z
Encoding: 90 90 47
Width: 735
Flags: MW
HStem: 0 80<134 706 29 29> 820 80<29 706 29 601 29 706>
LayerCount: 2
Back
Fore
SplineSet
29 820 m 1
 29 900 l 1
 706 900 l 1
 706 820 l 1
 134 80 l 1
 706 80 l 1
 706 0 l 1
 29 0 l 1
 29 80 l 1
 601 820 l 1
 29 820 l 1
EndSplineSet
Validated: 1
EndChar

StartChar: grave
Encoding: 96 96 48
Width: 331
Flags: MW
HStem: 765 135<16 217 16 138>
VStem: 16 201<765 900>
LayerCount: 2
Back
Fore
SplineSet
16 900 m 1
 131 900 l 1
 217 765 l 1
 138 765 l 1
 16 900 l 1
EndSplineSet
Validated: 1
EndChar

StartChar: a
Encoding: 97 97 49
Width: 684
Flags: MW
HStem: -9 80<295.5 333 329 333> 0 21G 282 80<292 333 329 333> 514 80<295.5 333 329 333>
VStem: 66 88<149 203> 507 88<-150 55 55 55 138 214.5 298 398 -150 415>
LayerCount: 2
Back
Fore
SplineSet
333 362 m 2xbc
 397 362 464 341 507 298 c 1
 507 398 l 2
 507 432 487 462 458 481 c 0
 421 506 377 514 333 514 c 2
 329 514 l 2
 262 514 192 491 165 440 c 1
 90 484 l 1
 103 505 120 524 140 539 c 0
 194 579 262 594 329 594 c 2
 333 594 l 2
 400 594 468 579 522 539 c 0
 567 505 595 454 595 398 c 2
 595 -150 l 1
 507 -150 l 1x7c
 507 55 l 1
 464 12 397 -9 333 -9 c 2
 329 -9 l 2
 262 -9 195 4 140 43 c 0
 96 74 66 122 66 176 c 0
 66 230 96 279 140 310 c 0
 195 349 262 362 329 362 c 2
 333 362 l 2xbc
333 71 m 2xbc
 406 71 507 100 507 176 c 0
 507 253 407 282 333 282 c 2
 329 282 l 2
 255 282 154 253 154 176 c 0
 154 99 255 71 329 71 c 2
 333 71 l 2xbc
EndSplineSet
Validated: 1
EndChar

StartChar: b
Encoding: 98 98 50
Width: 772
Flags: MW
HStem: -9 80<366 406 402 406> 0 21G<103 103 103 191> 514 80<373.5 406 402 406> 930 20G<103 191 191 191>
VStem: 103 88<0 106 262.5 321.5 479 950> 618 88<262.5 321.5>
LayerCount: 2
Back
Fore
SplineSet
103 0 m 1x7c
 103 950 l 1
 191 950 l 1
 191 479 l 1
 198 490 206 500 214 510 c 0
 261 564 330 594 402 594 c 2
 406 594 l 2
 486 594 566 567 622 510 c 0
 679 453 706 373 706 292 c 0
 706 211 679 132 622 75 c 0
 566 18 486 -9 406 -9 c 2
 402 -9 l 2xbc
 330 -9 261 21 214 75 c 0
 206 85 198 95 191 106 c 1
 191 0 l 1
 103 0 l 1x7c
406 514 m 2
 402 514 l 2
 345 514 289 493 250 452 c 0
 209 409 191 351 191 292 c 0
 191 233 209 176 250 133 c 0
 289 92 345 71 402 71 c 2
 406 71 l 2
 463 71 519 92 558 133 c 0
 599 176 618 233 618 292 c 0
 618 351 599 409 558 452 c 0
 519 493 463 514 406 514 c 2
EndSplineSet
Validated: 1
EndChar

StartChar: c
Encoding: 99 99 51
Width: 713
Flags: MW
HStem: -9 80<325 370 365 370> 514 80<336.5 370 365 370>
VStem: 66 88<262.5 321.5 262.5 332.5>
LayerCount: 2
Back
Fore
SplineSet
365 -9 m 2
 285 -9 206 18 150 75 c 0
 93 132 66 211 66 292 c 0
 66 373 93 453 150 510 c 0
 206 567 285 594 365 594 c 2
 370 594 l 2
 450 594 529 567 585 510 c 0
 605 490 621 467 634 442 c 1
 556 402 l 1
 547 420 536 437 522 452 c 0
 483 493 427 514 370 514 c 2
 365 514 l 2
 308 514 252 493 213 452 c 0
 172 409 154 351 154 292 c 0
 154 233 172 176 213 133 c 0
 252 92 308 71 365 71 c 2
 370 71 l 2
 427 71 483 92 522 133 c 0
 536 148 547 165 556 183 c 1
 634 143 l 1
 621 118 605 95 585 75 c 0
 529 18 450 -9 370 -9 c 2
 365 -9 l 2
EndSplineSet
Validated: 1
EndChar

StartChar: d
Encoding: 100 100 52
Width: 772
Flags: MW
HStem: -9 80<325 370 365 370> 0 21G<581 669 581 581> 514 80<336.5 370 365 370> 930 20G<581 669 669 669>
VStem: 66 88<262.5 321.5 262.5 332.5> 581 88<0 106 106 106 262.5 321.5 479 950>
LayerCount: 2
Back
Fore
SplineSet
669 0 m 1x7c
 581 0 l 1x7c
 581 106 l 1
 574 95 566 85 558 75 c 0
 511 21 442 -9 370 -9 c 2
 365 -9 l 2xbc
 285 -9 206 18 150 75 c 0
 93 132 66 211 66 292 c 0
 66 373 93 453 150 510 c 0
 206 567 285 594 365 594 c 2
 370 594 l 2
 442 594 511 564 558 510 c 0
 566 500 574 490 581 479 c 1
 581 950 l 1
 669 950 l 1
 669 0 l 1x7c
370 514 m 2
 365 514 l 2
 308 514 252 493 213 452 c 0
 172 409 154 351 154 292 c 0
 154 233 172 176 213 133 c 0
 252 92 308 71 365 71 c 2
 370 71 l 2xbc
 427 71 483 92 522 133 c 0
 563 176 581 233 581 292 c 0
 581 351 563 409 522 452 c 0
 483 493 427 514 370 514 c 2
EndSplineSet
Validated: 1
EndChar

StartChar: e
Encoding: 101 101 53
Width: 720
Flags: MW
HStem: -9 80<325 370 365 370> 252 80<157 578 157 669 157 578> 514 80<336.5 370 365 370>
VStem: 66 91<252 252 252 332 252 332.5>
LayerCount: 2
Back
Fore
SplineSet
370 71 m 2
 428 71 484 92 523 134 c 1
 583 73 l 1
 527 18 449 -9 370 -9 c 2
 365 -9 l 2
 285 -9 206 18 150 75 c 0
 93 132 66 211 66 292 c 0
 66 373 93 453 150 510 c 0
 206 567 285 594 365 594 c 2
 370 594 l 2
 450 594 529 567 585 510 c 0
 642 453 669 373 669 292 c 2
 669 252 l 1
 157 252 l 1
 164 208 181 166 213 133 c 0
 252 92 308 71 365 71 c 2
 370 71 l 2
157 332 m 1
 578 332 l 1
 571 377 554 419 522 452 c 0
 483 493 427 514 370 514 c 2
 365 514 l 2
 308 514 252 493 213 452 c 0
 181 419 164 377 157 332 c 1
EndSplineSet
Validated: 1
EndChar

StartChar: f
Encoding: 102 102 54
Width: 434
Flags: MW
HStem: 0 21G<165 253 165 165> 505 80<44 165 44 165 253 375> 879 80<302.5 313 312 313>
VStem: 165 88<0 505 0 505 585 761>
LayerCount: 2
Back
Fore
SplineSet
44 505 m 1
 44 585 l 1
 165 585 l 1
 165 761 l 2
 165 812 176 863 206 904 c 0
 231 938 270 959 312 959 c 2
 313 959 l 2
 363 959 405 927 429 886 c 1
 356 844 l 1
 347 862 333 879 313 879 c 2
 312 879 l 2
 293 879 279 863 270 846 c 0
 257 820 253 790 253 761 c 2
 253 585 l 1
 375 585 l 1
 375 505 l 1
 253 505 l 1
 253 0 l 1
 165 0 l 1
 165 505 l 1
 44 505 l 1
EndSplineSet
Validated: 1
EndChar

StartChar: g
Encoding: 103 103 55
Width: 757
Flags: MW
HStem: -359 80<325 370 365 370> 0 80<325 370 365 370> 514 80<336.5 370 365 370> 565 20G<581 669 669 669>
VStem: 66 88<268 326 268 337> 581 88<-64 114 114 114 268 326 480 585>
LayerCount: 2
Back
Fore
SplineSet
669 585 m 1xdc
 669 -64 l 2
 669 -143 641 -220 585 -276 c 0
 528 -332 450 -359 370 -359 c 2
 365 -359 l 2
 285 -359 207 -332 150 -276 c 0
 131 -258 115 -237 103 -214 c 1
 180 -172 l 1
 189 -189 199 -205 213 -219 c 0
 253 -260 308 -279 365 -279 c 2
 370 -279 l 2
 427 -279 482 -260 522 -219 c 0
 562 -178 581 -121 581 -64 c 2
 581 114 l 1
 574 103 566 93 558 83 c 0
 511 29 442 0 370 0 c 2
 365 0 l 2
 285 0 207 27 150 83 c 0
 94 139 66 217 66 297 c 0
 66 377 94 455 150 511 c 0
 207 567 285 594 365 594 c 2
 370 594 l 2xec
 442 594 511 565 558 511 c 0
 566 501 574 491 581 480 c 1
 581 585 l 1
 669 585 l 1xdc
370 514 m 2
 365 514 l 2
 308 514 253 494 213 453 c 0
 173 412 154 355 154 297 c 0
 154 239 173 182 213 141 c 0
 253 100 308 80 365 80 c 2
 370 80 l 2
 427 80 482 100 522 141 c 0
 562 182 581 239 581 297 c 0
 581 355 562 412 522 453 c 0
 482 494 427 514 370 514 c 2
EndSplineSet
Validated: 1
EndChar

StartChar: h
Encoding: 104 104 56
Width: 676
Flags: MW
HStem: 0 21G<103 191 103 103 507 595 507 507> 514 80<354.5 382 379 382> 930 20G<103 191 191 191>
VStem: 103 88<0 360 509 950> 507 88<0 360 0 380>
LayerCount: 2
Back
Fore
SplineSet
191 509 m 1
 234 563 305 594 379 594 c 2
 382 594 l 2
 440 594 497 571 536 528 c 0
 578 482 595 422 595 360 c 2
 595 0 l 1
 507 0 l 1
 507 360 l 2
 507 400 497 440 472 471 c 0
 450 498 417 514 382 514 c 2
 379 514 l 2
 330 514 282 502 244 471 c 0
 211 444 191 403 191 360 c 2
 191 0 l 1
 103 0 l 1
 103 950 l 1
 191 950 l 1
 191 509 l 1
EndSplineSet
Validated: 1
EndChar

StartChar: i
Encoding: 105 105 57
Width: 279
Flags: MW
HStem: 0 21G<96 96 96 184> 565 20G<96 184 184 184> 822 128<122 158 121.5 158.5>
VStem: 76 128<868 904> 96 88<0 585 0 585>
LayerCount: 2
Back
Fore
SplineSet
96 0 m 1xe8
 96 585 l 1
 184 585 l 1
 184 0 l 1
 96 0 l 1xe8
76 886 m 0xf0
 76 922 103 950 140 950 c 0
 176 950 204 923 204 886 c 0
 204 850 177 822 140 822 c 0
 104 822 76 849 76 886 c 0xf0
EndSplineSet
Validated: 1
EndChar

StartChar: j
Encoding: 106 106 58
Width: 316
Flags: MW
HStem: -359 80<11 30 28 30> 565 20G<132 220 220 220> 826 124<158.5 193.5>
VStem: 115 123<870.5 905.5> 132 88<-140 585>
LayerCount: 2
Back
Fore
SplineSet
115 888 m 0xf0
 115 923 141 950 176 950 c 0
 211 950 238 923 238 888 c 0
 238 853 211 826 176 826 c 0
 141 826 115 853 115 888 c 0xf0
28 -359 m 2
 -6 -359 -39 -350 -68 -332 c 1
 -24 -261 l 1
 -9 -272 9 -279 28 -279 c 2
 30 -279 l 2
 98 -279 132 -206 132 -140 c 2
 132 585 l 1
 220 585 l 1
 220 -140 l 2xe8
 220 -197 205 -255 167 -298 c 0
 133 -338 82 -359 30 -359 c 2
 28 -359 l 2
EndSplineSet
Validated: 1
EndChar

StartChar: k
Encoding: 107 107 59
Width: 632
Flags: MW
HStem: 0 21G<103 191 103 103 527 632 527 527> 565 20G<516 632 632 632> 930 20G<103 191 191 191>
VStem: 103 88<0 175 283 950>
LayerCount: 2
Back
Fore
SplineSet
103 950 m 1
 191 950 l 1
 191 283 l 1
 516 585 l 1
 632 585 l 1
 376 347 l 1
 632 0 l 1
 527 0 l 1
 313 288 l 1
 191 175 l 1
 191 0 l 1
 103 0 l 1
 103 950 l 1
EndSplineSet
Validated: 1
EndChar

StartChar: l
Encoding: 108 108 60
Width: 294
Flags: MW
HStem: 0 21G<103 103 103 191> 930 20G
VStem: 103 88<0 1020 0 1020>
LayerCount: 2
Back
Fore
SplineSet
103 0 m 1
 103 1020 l 1
 191 1020 l 1
 191 0 l 1
 103 0 l 1
EndSplineSet
Validated: 1
EndChar

StartChar: m
Encoding: 109 109 61
Width: 1066
Flags: MW
HStem: 0 21G<88 176 88 88 493 581 493 493 897 985 897 897> 514 80<339.5 368 364 368 769 772> 565 20G<88 176 176 176>
VStem: 88 88<0 360 509 585> 493 88<0 360 0 380> 897 88<0 360 0 380>
LayerCount: 2
Back
Fore
SplineSet
176 509 m 1xbc
 219 563 290 594 364 594 c 2
 368 594 l 2
 426 594 482 571 521 528 c 0
 536 511 548 493 557 473 c 1
 567 493 580 512 597 528 c 0
 642 573 705 594 769 594 c 2
 772 594 l 2
 830 594 886 571 925 528 c 0
 966 482 985 422 985 360 c 2
 985 0 l 1
 897 0 l 1
 897 360 l 2
 897 400 887 440 862 471 c 0
 840 498 807 514 772 514 c 2
 769 514 l 2
 720 514 671 502 633 471 c 0
 600 444 581 403 581 360 c 2
 581 0 l 1
 493 0 l 1
 493 360 l 2
 493 400 483 440 458 471 c 0
 436 498 403 514 368 514 c 2
 364 514 l 2xdc
 315 514 267 502 229 471 c 0
 196 444 176 403 176 360 c 2
 176 0 l 1
 88 0 l 1
 88 585 l 1
 176 585 l 1
 176 509 l 1xbc
EndSplineSet
Validated: 1
EndChar

StartChar: n
Encoding: 110 110 62
Width: 698
Flags: MW
HStem: 0 21G<88 176 88 88 529 617 529 529> 514 80<359 390 386 390> 565 20G<88 176 176 176>
VStem: 88 88<0 360 504 585> 529 88<0 360 0 380.5>
LayerCount: 2
Back
Fore
SplineSet
176 504 m 1xb8
 223 562 305 594 386 594 c 2
 390 594 l 2
 451 594 511 572 554 528 c 0
 597 483 617 422 617 360 c 2
 617 0 l 1
 529 0 l 1
 529 360 l 2
 529 401 517 441 490 471 c 0
 464 499 428 514 390 514 c 2
 386 514 l 2xd8
 332 514 278 503 235 471 c 0
 199 445 176 404 176 360 c 2
 176 0 l 1
 88 0 l 1
 88 585 l 1
 176 585 l 1
 176 504 l 1xb8
EndSplineSet
Validated: 1
EndChar

StartChar: o
Encoding: 111 111 63
Width: 735
Flags: HMWO
HStem: -9 80 514 80
VStem: 66 88 581 88
LayerCount: 2
Back
Fore
SplineSet
368 -23 m 1
 84 150 l 1
 84 436 l 1
 368 609 l 1
 652 436 l 1
 652 150 l 1
 368 -23 l 1
368 73 m 1
 567 198 l 1
 567 387 l 1
 368 513 l 1
 169 387 l 1
 169 198 l 1
 368 73 l 1
EndSplineSet
EndChar

StartChar: p
Encoding: 112 112 64
Width: 757
Flags: MW
HStem: -350 21G<88 88 88 176> -9 80<351 392 387 392> 514 80<358.5 392 387 392> 565 20G<88 176 176 176>
VStem: 88 88<-350 106 262.5 321.5 479 585> 603 88<262.5 321.5>
LayerCount: 2
Back
Fore
SplineSet
88 -350 m 1xec
 88 585 l 1
 176 585 l 1xdc
 176 479 l 1
 183 490 191 500 199 510 c 0
 246 564 315 594 387 594 c 2
 392 594 l 2
 472 594 551 567 607 510 c 0
 664 453 691 373 691 292 c 0
 691 211 664 132 607 75 c 0
 551 18 472 -9 392 -9 c 2
 387 -9 l 2
 315 -9 246 21 199 75 c 0
 191 85 183 95 176 106 c 1
 176 -350 l 1
 88 -350 l 1xec
392 514 m 2xec
 387 514 l 2
 330 514 274 493 235 452 c 0
 194 409 176 351 176 292 c 0
 176 233 194 176 235 133 c 0
 274 92 330 71 387 71 c 2
 392 71 l 2
 449 71 505 92 544 133 c 0
 585 176 603 233 603 292 c 0
 603 351 585 409 544 452 c 0
 505 493 449 514 392 514 c 2xec
EndSplineSet
Validated: 1
EndChar

StartChar: q
Encoding: 113 113 65
Width: 757
Flags: MW
HStem: -350 21G<581 669 581 581> -9 80<325 370 365 370> 514 80<336.5 370 365 370> 565 20G<581 669 669 669>
VStem: 66 88<262.5 321.5 262.5 332.5> 581 88<-350 106 106 106 262.5 321.5 479 585>
LayerCount: 2
Back
Fore
SplineSet
669 -350 m 1xdc
 581 -350 l 1
 581 106 l 1
 574 95 566 85 558 75 c 0
 511 21 442 -9 370 -9 c 2
 365 -9 l 2
 285 -9 206 18 150 75 c 0
 93 132 66 211 66 292 c 0
 66 373 93 453 150 510 c 0
 206 567 285 594 365 594 c 2
 370 594 l 2xec
 442 594 511 564 558 510 c 0
 566 500 574 490 581 479 c 1
 581 585 l 1
 669 585 l 1
 669 -350 l 1xdc
370 514 m 2
 365 514 l 2
 308 514 252 493 213 452 c 0
 172 409 154 351 154 292 c 0
 154 233 172 176 213 133 c 0
 252 92 308 71 365 71 c 2
 370 71 l 2
 427 71 483 92 522 133 c 0
 563 176 581 233 581 292 c 0
 581 351 563 409 522 452 c 0
 483 493 427 514 370 514 c 2
EndSplineSet
Validated: 1
EndChar

StartChar: r
Encoding: 114 114 66
Width: 397
Flags: HMWO
HStem: 0 21G<88 88 88 176> 514 80<296 315> 565 20G<88 176 176 176>
VStem: 88 88<0 360 524 585>
LayerCount: 2
Back
Fore
SplineSet
88 0 m 1xd0
 88 585 l 1
 176 585 l 1xb0
 176 524 l 1
 209 566 242 594 303 594 c 3
 362.034179688 594 415 534 415 534 c 1
 366 477 l 1
 366 477 329 514 301 514 c 0
 261.190429688 514 236.110694163 496.900771292 211 469 c 0
 184 439 176 401 176 360 c 2
 176 0 l 1
 88 0 l 1xd0
EndSplineSet
EndChar

StartChar: s
Encoding: 115 115 67
Width: 603
Flags: MW
HStem: -9 80<268.5 303 300 303> 252 80<239 307 295 307> 514 80<266.5 303 300 303>
VStem: 79 88<392.5 453 392.5 475.5> 463 88<128 196.5>
LayerCount: 2
Back
Fore
SplineSet
142 144 m 1
 159 91 237 71 300 71 c 2
 303 71 l 2
 381 71 463 94 463 162 c 0
 463 231 378 252 298 252 c 2
 295 252 l 2
 183 252 79 319 79 423 c 0
 79 528 186 594 300 594 c 2
 303 594 l 2
 360 594 417 581 462 546 c 0
 486 527 504 502 514 474 c 1
 432 445 l 1
 417 492 359 514 303 514 c 2
 300 514 l 2
 233 514 167 483 167 423 c 0
 167 362 236 332 305 332 c 2
 307 332 l 2
 430 332 551 273 551 162 c 0
 551 50 428 -9 303 -9 c 2
 300 -9 l 2
 237 -9 173 3 121 39 c 0
 94 57 74 82 62 111 c 1
 142 144 l 1
EndSplineSet
Validated: 1
EndChar

StartChar: t
Encoding: 116 116 68
Width: 367
Flags: MW
HStem: 0 21G<140 228 140 140> 505 80<-3 140 -3 140 228 371> 930 20G<140 228 228 228>
VStem: 140 88<0 505 0 505 585 950>
LayerCount: 2
Back
Fore
SplineSet
-3 505 m 1
 -3 585 l 1
 140 585 l 1
 140 950 l 1
 228 950 l 1
 228 585 l 1
 371 585 l 1
 371 505 l 1
 228 505 l 1
 228 0 l 1
 140 0 l 1
 140 505 l 1
 -3 505 l 1
EndSplineSet
Validated: 1
EndChar

StartChar: u
Encoding: 117 117 69
Width: 698
Flags: MW
HStem: -9 80<309.5 347 344 347> 0 21G<522 610 522 522> 565 20G<81 169 169 169 522 610 610 610>
VStem: 81 88<225 585> 522 88<0 72 72 72 225 585 0 585>
LayerCount: 2
Back
Fore
SplineSet
522 72 m 1x78
 482 21 416 -9 347 -9 c 2
 344 -9 l 2
 275 -9 206 11 154 57 c 0
 106 100 81 161 81 225 c 2
 81 585 l 1
 169 585 l 1
 169 225 l 2
 169 183 186 142 218 114 c 0
 252 84 298 71 344 71 c 2
 347 71 l 2xb8
 393 71 439 84 473 114 c 0
 505 142 522 183 522 225 c 2
 522 585 l 1
 610 585 l 1
 610 0 l 1
 522 0 l 1
 522 72 l 1x78
EndSplineSet
Validated: 1
EndChar

StartChar: v
Encoding: 118 118 70
Width: 588
Flags: MW
HStem: 0 21G<254 334 254 254> 565 20G<-7 84 84 84 512 595 595 595>
LayerCount: 2
Back
Fore
SplineSet
-7 585 m 1
 84 585 l 1
 298 106 l 1
 512 585 l 1
 595 585 l 1
 334 0 l 1
 254 0 l 1
 -7 585 l 1
EndSplineSet
Validated: 1
EndChar

StartChar: w
Encoding: 119 119 71
Width: 919
Flags: MW
HStem: 0 21G<260 340 260 260 578 658 578 578> 565 20G<-7 85 85 85 311 402 402 402 525 608 608 608 843 926 926 926>
LayerCount: 2
Back
Fore
SplineSet
-7 585 m 1
 85 585 l 1
 305 104 l 1
 418 351 l 1
 311 585 l 1
 402 585 l 1
 464 451 l 1
 525 585 l 1
 608 585 l 1
 505 360 l 1
 622 104 l 1
 843 585 l 1
 926 585 l 1
 658 0 l 1
 578 0 l 1
 459 260 l 1
 340 0 l 1
 260 0 l 1
 -7 585 l 1
EndSplineSet
Validated: 1
EndChar

StartChar: x
Encoding: 120 120 72
Width: 595
Flags: MW
HStem: 0 21G<15 116 15 15 469 581 469 469> 565 20G<40 151 151 151 451 553 553 553>
LayerCount: 2
Back
Fore
SplineSet
40 585 m 1
 151 585 l 1
 300 382 l 1
 451 585 l 1
 553 585 l 1
 350 314 l 1
 581 0 l 1
 469 0 l 1
 294 238 l 1
 116 0 l 1
 15 0 l 1
 244 307 l 1
 40 585 l 1
EndSplineSet
Validated: 1
EndChar

StartChar: y
Encoding: 121 121 73
Width: 603
Flags: MW
HStem: -350 21G<102 185 102 102> 565 20G<0 92 92 92 519 603 603 603>
LayerCount: 2
Back
Fore
SplineSet
0 585 m 1
 92 585 l 1
 306 106 l 1
 519 585 l 1
 603 585 l 1
 185 -350 l 1
 102 -350 l 1
 258 0 l 1
 261 0 l 1
 0 585 l 1
EndSplineSet
Validated: 1
EndChar

StartChar: z
Encoding: 122 122 74
Width: 559
Flags: MW
HStem: 0 80<159 515 44 44> 505 80<44 515 44 400 44 515>
LayerCount: 2
Back
Fore
SplineSet
44 505 m 1
 44 585 l 1
 515 585 l 1
 515 505 l 1
 159 80 l 1
 515 80 l 1
 515 0 l 1
 44 0 l 1
 44 80 l 1
 400 505 l 1
 44 505 l 1
EndSplineSet
Validated: 1
EndChar

StartChar: dieresis
Encoding: 168 168 75
Width: 441
Flags: MW
HStem: 772 128<70 106 69.5 106.5 335 371>
VStem: 24 128<818 854> 289 128<818 854>
LayerCount: 2
Back
Fore
SplineSet
24 836 m 0
 24 872 51 900 88 900 c 0
 124 900 152 873 152 836 c 0
 152 800 125 772 88 772 c 0
 52 772 24 799 24 836 c 0
289 836 m 0
 289 872 316 900 353 900 c 0
 389 900 417 873 417 836 c 0
 417 800 390 772 353 772 c 0
 317 772 289 799 289 836 c 0
EndSplineSet
Validated: 1
EndChar

StartChar: acute
Encoding: 180 180 76
Width: 331
Flags: MW
HStem: 765 135<113 316 113 316>
VStem: 113 203<765 900>
LayerCount: 2
Back
Fore
SplineSet
199 900 m 1
 316 900 l 1
 194 765 l 1
 113 765 l 1
 199 900 l 1
EndSplineSet
Validated: 1
EndChar

StartChar: Agrave
Encoding: 192 192 77
Width: 816
Flags: MW
HStem: 0 21G<15 15 15 98 710 710 710 801> 252 80<228 580 228 611 197 580> 880 20G<368 448 448 448>
LayerCount: 2
Back
Fore
SplineSet
15 0 m 1
 368 900 l 1
 448 900 l 1
 801 0 l 1
 710 0 l 1
 611 252 l 1
 197 252 l 1
 98 0 l 1
 15 0 l 1
259 1125 m 1
 373 1125 l 1
 460 990 l 1
 380 990 l 1
 259 1125 l 1
228 332 m 1
 580 332 l 1
 404 779 l 1
 228 332 l 1
EndSplineSet
Validated: 1
EndChar

StartChar: Aacute
Encoding: 193 193 78
Width: 816
Flags: MW
HStem: 0 21G<15 15 15 98 710 710 710 801> 252 80<228 580 228 611 197 580> 880 20G<368 448 448 448>
LayerCount: 2
Back
Fore
SplineSet
15 0 m 1
 368 900 l 1
 448 900 l 1
 801 0 l 1
 710 0 l 1
 611 252 l 1
 197 252 l 1
 98 0 l 1
 15 0 l 1
441 1125 m 1
 558 1125 l 1
 436 990 l 1
 355 990 l 1
 441 1125 l 1
228 332 m 1
 580 332 l 1
 404 779 l 1
 228 332 l 1
EndSplineSet
Validated: 1
EndChar

StartChar: Acircumflex
Encoding: 194 194 79
Width: 816
Flags: MW
HStem: 0 21G<15 15 15 98 710 710 710 801> 252 80<228 580 228 611 197 580> 880 20G<368 448 448 448>
LayerCount: 2
Back
Fore
SplineSet
15 0 m 1
 368 900 l 1
 448 900 l 1
 801 0 l 1
 710 0 l 1
 611 252 l 1
 197 252 l 1
 98 0 l 1
 15 0 l 1
228 332 m 1
 580 332 l 1
 404 779 l 1
 228 332 l 1
408 1073 m 1
 306 990 l 1
 215 990 l 1
 344 1125 l 1
 472 1125 l 1
 601 990 l 1
 510 990 l 1
 408 1073 l 1
EndSplineSet
Validated: 1
EndChar

StartChar: Adieresis
Encoding: 196 196 80
Width: 816
Flags: MW
HStem: 0 21G<15 15 15 98 710 710 710 801> 252 80<228 580 228 611 197 580> 880 20G<368 448 448 448> 997 128<258 294 257.5 294.5 522 558>
VStem: 212 128<1043 1079> 476 128<1043 1079>
LayerCount: 2
Back
Fore
SplineSet
15 0 m 1
 368 900 l 1
 448 900 l 1
 801 0 l 1
 710 0 l 1
 611 252 l 1
 197 252 l 1
 98 0 l 1
 15 0 l 1
212 1061 m 0
 212 1097 239 1125 276 1125 c 0
 312 1125 340 1098 340 1061 c 0
 340 1025 313 997 276 997 c 0
 240 997 212 1024 212 1061 c 0
476 1061 m 0
 476 1097 503 1125 540 1125 c 0
 576 1125 604 1098 604 1061 c 0
 604 1025 577 997 540 997 c 0
 504 997 476 1024 476 1061 c 0
228 332 m 1
 580 332 l 1
 404 779 l 1
 228 332 l 1
EndSplineSet
Validated: 1
EndChar

StartChar: Aring
Encoding: 197 197 81
Width: 816
Flags: MW
HStem: 0 21G<15 15 15 98 710 710 710 801> 252 80<228 580 228 611 197 580> 880 20G<368 448 448 448> 963 54<380 408 407 408> 1098 54<395 408 407 408>
VStem: 305 59<1045 1069 1045 1085> 452 59<1045 1069>
LayerCount: 2
Back
Fore
SplineSet
15 0 m 1
 368 900 l 1
 448 900 l 1
 801 0 l 1
 710 0 l 1
 611 252 l 1
 197 252 l 1
 98 0 l 1
 15 0 l 1
228 332 m 1
 580 332 l 1
 404 779 l 1
 228 332 l 1
305 1057 m 0
 305 1113 352 1152 407 1152 c 2
 408 1152 l 2
 435 1152 462 1143 482 1125 c 0
 501 1108 511 1083 511 1057 c 0
 511 1001 463 963 408 963 c 2
 407 963 l 2
 353 963 305 1002 305 1057 c 0
408 1098 m 2
 407 1098 l 2
 383 1098 364 1081 364 1057 c 0
 364 1033 383 1017 407 1017 c 2
 408 1017 l 2
 432 1017 452 1033 452 1057 c 0
 452 1081 432 1098 408 1098 c 2
EndSplineSet
Validated: 1
EndChar

StartChar: Egrave
Encoding: 200 200 82
Width: 684
Flags: MW
HStem: 0 80<191 632 191 632> 410 80<191 588 191 588> 820 80<191 632 191 191>
VStem: 103 88<80 410 490 820>
CounterMasks: 1 e0
LayerCount: 2
Back
Fore
SplineSet
103 0 m 1
 103 900 l 1
 632 900 l 1
 632 820 l 1
 191 820 l 1
 191 490 l 1
 588 490 l 1
 588 410 l 1
 191 410 l 1
 191 80 l 1
 632 80 l 1
 632 0 l 1
 103 0 l 1
218 1125 m 1
 333 1125 l 1
 419 990 l 1
 340 990 l 1
 218 1125 l 1
EndSplineSet
Validated: 1
EndChar

StartChar: Eacute
Encoding: 201 201 83
Width: 684
Flags: MW
HStem: 0 80<191 632 191 632> 410 80<191 588 191 588> 820 80<191 632 191 191>
VStem: 103 88<80 410 490 820>
CounterMasks: 1 e0
LayerCount: 2
Back
Fore
SplineSet
103 0 m 1
 103 900 l 1
 632 900 l 1
 632 820 l 1
 191 820 l 1
 191 490 l 1
 588 490 l 1
 588 410 l 1
 191 410 l 1
 191 80 l 1
 632 80 l 1
 632 0 l 1
 103 0 l 1
401 1125 m 1
 518 1125 l 1
 396 990 l 1
 315 990 l 1
 401 1125 l 1
EndSplineSet
Validated: 1
EndChar

StartChar: Ecircumflex
Encoding: 202 202 84
Width: 684
Flags: MW
HStem: 0 80<191 632 191 632> 410 80<191 588 191 588> 820 80<191 632 191 191>
VStem: 103 88<80 410 490 820>
CounterMasks: 1 e0
LayerCount: 2
Back
Fore
SplineSet
103 0 m 1
 103 900 l 1
 632 900 l 1
 632 820 l 1
 191 820 l 1
 191 490 l 1
 588 490 l 1
 588 410 l 1
 191 410 l 1
 191 80 l 1
 632 80 l 1
 632 0 l 1
 103 0 l 1
368 1073 m 1
 266 990 l 1
 175 990 l 1
 304 1125 l 1
 431 1125 l 1
 560 990 l 1
 469 990 l 1
 368 1073 l 1
EndSplineSet
Validated: 1
EndChar

StartChar: Edieresis
Encoding: 203 203 85
Width: 684
Flags: MW
HStem: 0 80<191 632 191 632> 410 80<191 588 191 588> 820 80<191 632 191 191> 997 128<217 253 216.5 253.5 482 518>
VStem: 103 88<80 410 490 820> 171 128<1043 1079> 436 128<1043 1079>
LayerCount: 2
Back
Fore
SplineSet
103 0 m 1xfa
 103 900 l 1
 632 900 l 1
 632 820 l 1
 191 820 l 1
 191 490 l 1
 588 490 l 1
 588 410 l 1
 191 410 l 1
 191 80 l 1
 632 80 l 1
 632 0 l 1
 103 0 l 1xfa
171 1061 m 0xf6
 171 1097 198 1125 235 1125 c 0
 271 1125 299 1098 299 1061 c 0
 299 1025 272 997 235 997 c 0
 199 997 171 1024 171 1061 c 0xf6
436 1061 m 0
 436 1097 463 1125 500 1125 c 0
 536 1125 564 1098 564 1061 c 0
 564 1025 537 997 500 997 c 0
 464 997 436 1024 436 1061 c 0
EndSplineSet
Validated: 1
EndChar

StartChar: Igrave
Encoding: 204 204 86
Width: 323
Flags: MW
HStem: 0 21G<118 118 118 206> 880 20G<118 206 206 206>
VStem: 118 88<0 900 0 900>
LayerCount: 2
Back
Fore
SplineSet
118 0 m 1
 118 900 l 1
 206 900 l 1
 206 0 l 1
 118 0 l 1
12 1125 m 1
 127 1125 l 1
 213 990 l 1
 134 990 l 1
 12 1125 l 1
EndSplineSet
Validated: 1
EndChar

StartChar: Iacute
Encoding: 205 205 87
Width: 323
Flags: MW
HStem: 0 21G<118 118 118 206> 880 20G<118 206 206 206>
VStem: 118 88<0 900 0 900>
LayerCount: 2
Back
Fore
SplineSet
118 0 m 1
 118 900 l 1
 206 900 l 1
 206 0 l 1
 118 0 l 1
195 1125 m 1
 312 1125 l 1
 190 990 l 1
 109 990 l 1
 195 1125 l 1
EndSplineSet
Validated: 1
EndChar

StartChar: Icircumflex
Encoding: 206 206 88
Width: 323
Flags: MW
HStem: 0 21G<118 118 118 206> 880 20G<118 206 206 206>
VStem: 118 88<0 900 0 900>
LayerCount: 2
Back
Fore
SplineSet
118 0 m 1
 118 900 l 1
 206 900 l 1
 206 0 l 1
 118 0 l 1
162 1073 m 1
 60 990 l 1
 -31 990 l 1
 98 1125 l 1
 225 1125 l 1
 354 990 l 1
 263 990 l 1
 162 1073 l 1
EndSplineSet
Validated: 1
EndChar

StartChar: Idieresis
Encoding: 207 207 89
Width: 323
Flags: MW
HStem: 0 21G<118 118 118 206> 880 20G<118 206 206 206> 997 128<11 47 10.5 47.5 276 312>
VStem: -35 128<1043 1079> 118 88<0 900 0 900> 230 128<1043 1079>
LayerCount: 2
Back
Fore
SplineSet
118 0 m 1
 118 900 l 1
 206 900 l 1
 206 0 l 1
 118 0 l 1
-35 1061 m 0
 -35 1097 -8 1125 29 1125 c 0
 65 1125 93 1098 93 1061 c 0
 93 1025 66 997 29 997 c 0
 -7 997 -35 1024 -35 1061 c 0
230 1061 m 0
 230 1097 257 1125 294 1125 c 0
 330 1125 358 1098 358 1061 c 0
 358 1025 331 997 294 997 c 0
 258 997 230 1024 230 1061 c 0
EndSplineSet
Validated: 1
EndChar

StartChar: Ograve
Encoding: 210 210 90
Width: 1029
Flags: MW
HStem: -9 80<451 518 511 518> 829 80<462.5 518 511 518>
VStem: 66 88<400 500 400 511> 875 88<400 500>
LayerCount: 2
Back
Fore
SplineSet
365 1125 m 1
 480 1125 l 1
 566 990 l 1
 487 990 l 1
 365 1125 l 1
518 829 m 2
 511 829 l 2
 414 829 320 793 254 723 c 0
 185 650 154 550 154 450 c 0
 154 350 185 250 254 177 c 0
 320 107 414 71 511 71 c 2
 518 71 l 2
 615 71 709 107 775 177 c 0
 844 250 875 350 875 450 c 0
 875 550 844 650 775 723 c 0
 709 793 615 829 518 829 c 2
518 909 m 2
 638 909 755 866 838 780 c 0
 923 692 963 572 963 450 c 0
 963 328 923 208 838 120 c 0
 755 34 638 -9 518 -9 c 2
 511 -9 l 2
 391 -9 274 34 191 120 c 0
 106 208 66 328 66 450 c 0
 66 572 106 692 191 780 c 0
 274 866 391 909 511 909 c 2
 518 909 l 2
EndSplineSet
Validated: 1
EndChar

StartChar: Oacute
Encoding: 211 211 91
Width: 1029
Flags: MW
HStem: -9 80<451 518 511 518> 829 80<462.5 518 511 518>
VStem: 66 88<400 500 400 511> 875 88<400 500>
LayerCount: 2
Back
Fore
SplineSet
548 1125 m 1
 665 1125 l 1
 543 990 l 1
 462 990 l 1
 548 1125 l 1
518 829 m 2
 511 829 l 2
 414 829 320 793 254 723 c 0
 185 650 154 550 154 450 c 0
 154 350 185 250 254 177 c 0
 320 107 414 71 511 71 c 2
 518 71 l 2
 615 71 709 107 775 177 c 0
 844 250 875 350 875 450 c 0
 875 550 844 650 775 723 c 0
 709 793 615 829 518 829 c 2
518 909 m 2
 638 909 755 866 838 780 c 0
 923 692 963 572 963 450 c 0
 963 328 923 208 838 120 c 0
 755 34 638 -9 518 -9 c 2
 511 -9 l 2
 391 -9 274 34 191 120 c 0
 106 208 66 328 66 450 c 0
 66 572 106 692 191 780 c 0
 274 866 391 909 511 909 c 2
 518 909 l 2
EndSplineSet
Validated: 1
EndChar

StartChar: Ocircumflex
Encoding: 212 212 92
Width: 1029
Flags: MW
HStem: -9 80<451 518 511 518> 829 80<462.5 518 511 518>
VStem: 66 88<400 500 400 511> 875 88<400 500>
LayerCount: 2
Back
Fore
SplineSet
518 829 m 2
 511 829 l 2
 414 829 320 793 254 723 c 0
 185 650 154 550 154 450 c 0
 154 350 185 250 254 177 c 0
 320 107 414 71 511 71 c 2
 518 71 l 2
 615 71 709 107 775 177 c 0
 844 250 875 350 875 450 c 0
 875 550 844 650 775 723 c 0
 709 793 615 829 518 829 c 2
518 909 m 2
 638 909 755 866 838 780 c 0
 923 692 963 572 963 450 c 0
 963 328 923 208 838 120 c 0
 755 34 638 -9 518 -9 c 2
 511 -9 l 2
 391 -9 274 34 191 120 c 0
 106 208 66 328 66 450 c 0
 66 572 106 692 191 780 c 0
 274 866 391 909 511 909 c 2
 518 909 l 2
514 1073 m 1
 413 990 l 1
 322 990 l 1
 451 1125 l 1
 578 1125 l 1
 707 990 l 1
 616 990 l 1
 514 1073 l 1
EndSplineSet
Validated: 1
EndChar

StartChar: Odieresis
Encoding: 214 214 93
Width: 1029
Flags: MW
HStem: -9 80<451 518 511 518> 829 80<462.5 518 511 518> 997 128<364 400 363.5 400.5 629 665>
VStem: 66 88<400 500 400 511> 318 128<1043 1079> 583 128<1043 1079> 875 88<400 500>
LayerCount: 2
Back
Fore
SplineSet
318 1061 m 0
 318 1097 345 1125 382 1125 c 0
 418 1125 446 1098 446 1061 c 0
 446 1025 419 997 382 997 c 0
 346 997 318 1024 318 1061 c 0
583 1061 m 0
 583 1097 610 1125 647 1125 c 0
 683 1125 711 1098 711 1061 c 0
 711 1025 684 997 647 997 c 0
 611 997 583 1024 583 1061 c 0
518 829 m 2
 511 829 l 2
 414 829 320 793 254 723 c 0
 185 650 154 550 154 450 c 0
 154 350 185 250 254 177 c 0
 320 107 414 71 511 71 c 2
 518 71 l 2
 615 71 709 107 775 177 c 0
 844 250 875 350 875 450 c 0
 875 550 844 650 775 723 c 0
 709 793 615 829 518 829 c 2
518 909 m 2
 638 909 755 866 838 780 c 0
 923 692 963 572 963 450 c 0
 963 328 923 208 838 120 c 0
 755 34 638 -9 518 -9 c 2
 511 -9 l 2
 391 -9 274 34 191 120 c 0
 106 208 66 328 66 450 c 0
 66 572 106 692 191 780 c 0
 274 866 391 909 511 909 c 2
 518 909 l 2
EndSplineSet
Validated: 1
EndChar

StartChar: Ugrave
Encoding: 217 217 94
Width: 867
Flags: MW
HStem: -9 80<386 436 431 436> 880 20G<96 184 184 184 684 772 772 772>
VStem: 96 88<320 900> 684 88<320 900>
LayerCount: 2
Back
Fore
SplineSet
772 900 m 1
 772 320 l 2
 772 232 741 145 678 83 c 0
 614 20 526 -9 436 -9 c 2
 431 -9 l 2
 341 -9 254 20 190 83 c 0
 127 145 96 232 96 320 c 2
 96 900 l 1
 184 900 l 1
 184 320 l 2
 184 253 206 188 253 141 c 0
 300 94 365 71 431 71 c 2
 436 71 l 2
 502 71 567 94 614 141 c 0
 661 188 684 253 684 320 c 2
 684 900 l 1
 772 900 l 1
284 1125 m 1
 399 1125 l 1
 485 990 l 1
 406 990 l 1
 284 1125 l 1
EndSplineSet
Validated: 1
EndChar

StartChar: Uacute
Encoding: 218 218 95
Width: 867
Flags: MW
HStem: -9 80<386 436 431 436> 880 20G<96 184 184 184 684 772 772 772>
VStem: 96 88<320 900> 684 88<320 900>
LayerCount: 2
Back
Fore
SplineSet
772 900 m 1
 772 320 l 2
 772 232 741 145 678 83 c 0
 614 20 526 -9 436 -9 c 2
 431 -9 l 2
 341 -9 254 20 190 83 c 0
 127 145 96 232 96 320 c 2
 96 900 l 1
 184 900 l 1
 184 320 l 2
 184 253 206 188 253 141 c 0
 300 94 365 71 431 71 c 2
 436 71 l 2
 502 71 567 94 614 141 c 0
 661 188 684 253 684 320 c 2
 684 900 l 1
 772 900 l 1
467 1125 m 1
 584 1125 l 1
 462 990 l 1
 381 990 l 1
 467 1125 l 1
EndSplineSet
Validated: 1
EndChar

StartChar: Ucircumflex
Encoding: 219 219 96
Width: 867
Flags: MW
HStem: -9 80<386 436 431 436> 880 20G<96 184 184 184 684 772 772 772>
VStem: 96 88<320 900> 684 88<320 900>
LayerCount: 2
Back
Fore
SplineSet
772 900 m 1
 772 320 l 2
 772 232 741 145 678 83 c 0
 614 20 526 -9 436 -9 c 2
 431 -9 l 2
 341 -9 254 20 190 83 c 0
 127 145 96 232 96 320 c 2
 96 900 l 1
 184 900 l 1
 184 320 l 2
 184 253 206 188 253 141 c 0
 300 94 365 71 431 71 c 2
 436 71 l 2
 502 71 567 94 614 141 c 0
 661 188 684 253 684 320 c 2
 684 900 l 1
 772 900 l 1
434 1073 m 1
 332 990 l 1
 241 990 l 1
 370 1125 l 1
 497 1125 l 1
 626 990 l 1
 535 990 l 1
 434 1073 l 1
EndSplineSet
Validated: 1
EndChar

StartChar: Udieresis
Encoding: 220 220 97
Width: 867
Flags: MW
HStem: -9 80<386 436 431 436> 880 20G<96 184 184 184 684 772 772 772> 997 128<283 319 282.5 319.5 548 584>
VStem: 96 88<320 900> 237 128<1043 1079> 502 128<1043 1079> 684 88<320 900>
LayerCount: 2
Back
Fore
SplineSet
772 900 m 1
 772 320 l 2
 772 232 741 145 678 83 c 0
 614 20 526 -9 436 -9 c 2
 431 -9 l 2
 341 -9 254 20 190 83 c 0
 127 145 96 232 96 320 c 2
 96 900 l 1
 184 900 l 1
 184 320 l 2
 184 253 206 188 253 141 c 0
 300 94 365 71 431 71 c 2
 436 71 l 2
 502 71 567 94 614 141 c 0
 661 188 684 253 684 320 c 2
 684 900 l 1
 772 900 l 1
237 1061 m 0
 237 1097 264 1125 301 1125 c 0
 337 1125 365 1098 365 1061 c 0
 365 1025 338 997 301 997 c 0
 265 997 237 1024 237 1061 c 0
502 1061 m 0
 502 1097 529 1125 566 1125 c 0
 602 1125 630 1098 630 1061 c 0
 630 1025 603 997 566 997 c 0
 530 997 502 1024 502 1061 c 0
EndSplineSet
Validated: 1
EndChar

StartChar: Yacute
Encoding: 221 221 98
Width: 735
Flags: MW
HStem: 0 21G<323 412 323 323> 880 20G<-7 93 93 93 651 742 742 742>
VStem: 323 89<0 337 0 337>
LayerCount: 2
Back
Fore
SplineSet
-7 900 m 1
 93 900 l 1
 372 425 l 1
 651 900 l 1
 742 900 l 1
 412 337 l 1
 412 0 l 1
 323 0 l 1
 323 337 l 1
 -7 900 l 1
401 1125 m 1
 518 1125 l 1
 396 990 l 1
 315 990 l 1
 401 1125 l 1
EndSplineSet
Validated: 1
EndChar

StartChar: agrave
Encoding: 224 224 99
Width: 684
Flags: MW
HStem: -9 80<295.5 333 329 333> 0 21G<507 595 507 507> 282 80<292 333 329 333> 514 80<295.5 333 329 333>
VStem: 66 88<149 203> 507 88<0 55 55 55 138 214.5 298 398 0 415>
LayerCount: 2
Back
Fore
SplineSet
333 362 m 2xbc
 397 362 464 341 507 298 c 1
 507 398 l 2
 507 432 487 462 458 481 c 0
 421 506 377 514 333 514 c 2
 329 514 l 2
 262 514 192 491 165 440 c 1
 90 484 l 1
 103 505 120 524 140 539 c 0
 194 579 262 594 329 594 c 2
 333 594 l 2
 400 594 468 579 522 539 c 0
 567 505 595 454 595 398 c 2
 595 0 l 1
 507 0 l 1x7c
 507 55 l 1
 464 12 397 -9 333 -9 c 2
 329 -9 l 2
 262 -9 195 4 140 43 c 0
 96 74 66 122 66 176 c 0
 66 230 96 279 140 310 c 0
 195 349 262 362 329 362 c 2
 333 362 l 2xbc
182 790 m 1
 296 790 l 1
 382 655 l 1
 303 655 l 1
 182 790 l 1
333 71 m 2xbc
 406 71 507 100 507 176 c 0
 507 253 407 282 333 282 c 2
 329 282 l 2
 255 282 154 253 154 176 c 0
 154 99 255 71 329 71 c 2
 333 71 l 2xbc
EndSplineSet
Validated: 1
EndChar

StartChar: aacute
Encoding: 225 225 100
Width: 684
Flags: MW
HStem: -9 80<295.5 333 329 333> 0 21G<507 595 507 507> 282 80<292 333 329 333> 514 80<295.5 333 329 333>
VStem: 66 88<149 203> 507 88<0 55 55 55 138 214.5 298 398 0 415>
LayerCount: 2
Back
Fore
SplineSet
333 362 m 2xbc
 397 362 464 341 507 298 c 1
 507 398 l 2
 507 432 487 462 458 481 c 0
 421 506 377 514 333 514 c 2
 329 514 l 2
 262 514 192 491 165 440 c 1
 90 484 l 1
 103 505 120 524 140 539 c 0
 194 579 262 594 329 594 c 2
 333 594 l 2
 400 594 468 579 522 539 c 0
 567 505 595 454 595 398 c 2
 595 0 l 1
 507 0 l 1x7c
 507 55 l 1
 464 12 397 -9 333 -9 c 2
 329 -9 l 2
 262 -9 195 4 140 43 c 0
 96 74 66 122 66 176 c 0
 66 230 96 279 140 310 c 0
 195 349 262 362 329 362 c 2
 333 362 l 2xbc
364 790 m 1
 481 790 l 1
 359 655 l 1
 278 655 l 1
 364 790 l 1
333 71 m 2xbc
 406 71 507 100 507 176 c 0
 507 253 407 282 333 282 c 2
 329 282 l 2
 255 282 154 253 154 176 c 0
 154 99 255 71 329 71 c 2
 333 71 l 2xbc
EndSplineSet
Validated: 1
EndChar

StartChar: acircumflex
Encoding: 226 226 101
Width: 684
Flags: MW
HStem: -9 80<295.5 333 329 333> 0 21G<507 595 507 507> 282 80<292 333 329 333> 514 80<295.5 333 329 333>
VStem: 66 88<149 203> 507 88<0 55 55 55 138 214.5 298 398 0 415>
LayerCount: 2
Back
Fore
SplineSet
333 362 m 2xbc
 397 362 464 341 507 298 c 1
 507 398 l 2
 507 432 487 462 458 481 c 0
 421 506 377 514 333 514 c 2
 329 514 l 2
 262 514 192 491 165 440 c 1
 90 484 l 1
 103 505 120 524 140 539 c 0
 194 579 262 594 329 594 c 2
 333 594 l 2
 400 594 468 579 522 539 c 0
 567 505 595 454 595 398 c 2
 595 0 l 1
 507 0 l 1x7c
 507 55 l 1
 464 12 397 -9 333 -9 c 2
 329 -9 l 2
 262 -9 195 4 140 43 c 0
 96 74 66 122 66 176 c 0
 66 230 96 279 140 310 c 0
 195 349 262 362 329 362 c 2
 333 362 l 2xbc
333 71 m 2xbc
 406 71 507 100 507 176 c 0
 507 253 407 282 333 282 c 2
 329 282 l 2
 255 282 154 253 154 176 c 0
 154 99 255 71 329 71 c 2
 333 71 l 2xbc
330 738 m 1
 229 655 l 1
 138 655 l 1
 267 790 l 1
 394 790 l 1
 523 655 l 1
 432 655 l 1
 330 738 l 1
EndSplineSet
Validated: 1
EndChar

StartChar: adieresis
Encoding: 228 228 102
Width: 684
Flags: MW
HStem: -9 80<295.5 333 329 333> 0 21G<507 595 507 507> 282 80<292 333 329 333> 514 80<295.5 333 329 333> 662 128<180 216 179.5 216.5 445 481>
VStem: 66 88<149 203> 134 128<708 744> 399 128<708 744> 507 88<0 55 55 55 138 214.5 298 398 0 415>
LayerCount: 2
Back
Fore
SplineSet
333 362 m 2xbc80
 397 362 464 341 507 298 c 1
 507 398 l 2
 507 432 487 462 458 481 c 0
 421 506 377 514 333 514 c 2
 329 514 l 2
 262 514 192 491 165 440 c 1
 90 484 l 1
 103 505 120 524 140 539 c 0
 194 579 262 594 329 594 c 2
 333 594 l 2
 400 594 468 579 522 539 c 0
 567 505 595 454 595 398 c 2
 595 0 l 1
 507 0 l 1x7c80
 507 55 l 1
 464 12 397 -9 333 -9 c 2
 329 -9 l 2
 262 -9 195 4 140 43 c 0
 96 74 66 122 66 176 c 0
 66 230 96 279 140 310 c 0
 195 349 262 362 329 362 c 2
 333 362 l 2xbc80
134 726 m 0x3a
 134 762 161 790 198 790 c 0
 234 790 262 763 262 726 c 0
 262 690 235 662 198 662 c 0
 162 662 134 689 134 726 c 0x3a
399 726 m 0x39
 399 762 426 790 463 790 c 0
 499 790 527 763 527 726 c 0
 527 690 500 662 463 662 c 0
 427 662 399 689 399 726 c 0x39
333 71 m 2xbc80
 406 71 507 100 507 176 c 0
 507 253 407 282 333 282 c 2
 329 282 l 2
 255 282 154 253 154 176 c 0
 154 99 255 71 329 71 c 2
 333 71 l 2xbc80
EndSplineSet
Validated: 1
EndChar

StartChar: aring
Encoding: 229 229 103
Width: 684
Flags: MW
HStem: -9 80<295.5 333 329 333> 0 21G<507 595 507 507> 282 80<292 333 329 333> 514 80<295.5 333 329 333> 628 53<316.5 331 330 331> 763 53<318 331 330 331>
VStem: 66 88<149 203> 228 58<710 734 710 735> 375 59<710 734> 507 88<0 55 55 55 138 214.5 298 398 0 415>
LayerCount: 2
Back
Fore
SplineSet
333 362 m 2xbfc0
 397 362 464 341 507 298 c 1
 507 398 l 2
 507 432 487 462 458 481 c 0
 421 506 377 514 333 514 c 2
 329 514 l 2
 262 514 192 491 165 440 c 1
 90 484 l 1
 103 505 120 524 140 539 c 0
 194 579 262 594 329 594 c 2
 333 594 l 2
 400 594 468 579 522 539 c 0
 567 505 595 454 595 398 c 2
 595 0 l 1
 507 0 l 1x7fc0
 507 55 l 1
 464 12 397 -9 333 -9 c 2
 329 -9 l 2
 262 -9 195 4 140 43 c 0
 96 74 66 122 66 176 c 0
 66 230 96 279 140 310 c 0
 195 349 262 362 329 362 c 2
 333 362 l 2xbfc0
333 71 m 2xbfc0
 406 71 507 100 507 176 c 0
 507 253 407 282 333 282 c 2
 329 282 l 2
 255 282 154 253 154 176 c 0
 154 99 255 71 329 71 c 2
 333 71 l 2xbfc0
331 816 m 2
 358 816 385 808 405 790 c 0
 424 773 434 748 434 722 c 0
 434 696 424 671 405 654 c 0
 385 636 358 628 331 628 c 2
 330 628 l 2
 303 628 277 636 257 654 c 0
 238 671 228 696 228 722 c 0
 228 748 238 773 257 790 c 0
 277 808 303 816 330 816 c 2
 331 816 l 2
331 763 m 2
 330 763 l 2
 306 763 286 746 286 722 c 0
 286 698 306 681 330 681 c 2
 331 681 l 2
 355 681 375 698 375 722 c 0
 375 746 355 763 331 763 c 2
EndSplineSet
Validated: 1
EndChar

StartChar: egrave
Encoding: 232 232 104
Width: 720
Flags: MW
HStem: -9 80<325 370 365 370> 252 80<157 578 157 669 157 578> 514 80<336.5 370 365 370>
VStem: 66 91<252 252 252 332 252 332.5>
LayerCount: 2
Back
Fore
SplineSet
370 71 m 2
 428 71 484 92 523 134 c 1
 583 73 l 1
 527 18 449 -9 370 -9 c 2
 365 -9 l 2
 285 -9 206 18 150 75 c 0
 93 132 66 211 66 292 c 0
 66 373 93 453 150 510 c 0
 206 567 285 594 365 594 c 2
 370 594 l 2
 450 594 529 567 585 510 c 0
 642 453 669 373 669 292 c 2
 669 252 l 1
 157 252 l 1
 164 208 181 166 213 133 c 0
 252 92 308 71 365 71 c 2
 370 71 l 2
218 790 m 1
 333 790 l 1
 419 655 l 1
 340 655 l 1
 218 790 l 1
157 332 m 1
 578 332 l 1
 571 377 554 419 522 452 c 0
 483 493 427 514 370 514 c 2
 365 514 l 2
 308 514 252 493 213 452 c 0
 181 419 164 377 157 332 c 1
EndSplineSet
Validated: 1
EndChar

StartChar: eacute
Encoding: 233 233 105
Width: 720
Flags: MW
HStem: -9 80<325 370 365 370> 252 80<157 578 157 669 157 578> 514 80<336.5 370 365 370>
VStem: 66 91<252 252 252 332 252 332.5>
LayerCount: 2
Back
Fore
SplineSet
370 71 m 2
 428 71 484 92 523 134 c 1
 583 73 l 1
 527 18 449 -9 370 -9 c 2
 365 -9 l 2
 285 -9 206 18 150 75 c 0
 93 132 66 211 66 292 c 0
 66 373 93 453 150 510 c 0
 206 567 285 594 365 594 c 2
 370 594 l 2
 450 594 529 567 585 510 c 0
 642 453 669 373 669 292 c 2
 669 252 l 1
 157 252 l 1
 164 208 181 166 213 133 c 0
 252 92 308 71 365 71 c 2
 370 71 l 2
401 790 m 1
 518 790 l 1
 396 655 l 1
 315 655 l 1
 401 790 l 1
157 332 m 1
 578 332 l 1
 571 377 554 419 522 452 c 0
 483 493 427 514 370 514 c 2
 365 514 l 2
 308 514 252 493 213 452 c 0
 181 419 164 377 157 332 c 1
EndSplineSet
Validated: 1
EndChar

StartChar: ecircumflex
Encoding: 234 234 106
Width: 720
Flags: MW
HStem: -9 80<325 370 365 370> 252 80<157 578 157 669 157 578> 514 80<336.5 370 365 370>
VStem: 66 91<252 252 252 332 252 332.5>
LayerCount: 2
Back
Fore
SplineSet
370 71 m 2
 428 71 484 92 523 134 c 1
 583 73 l 1
 527 18 449 -9 370 -9 c 2
 365 -9 l 2
 285 -9 206 18 150 75 c 0
 93 132 66 211 66 292 c 0
 66 373 93 453 150 510 c 0
 206 567 285 594 365 594 c 2
 370 594 l 2
 450 594 529 567 585 510 c 0
 642 453 669 373 669 292 c 2
 669 252 l 1
 157 252 l 1
 164 208 181 166 213 133 c 0
 252 92 308 71 365 71 c 2
 370 71 l 2
157 332 m 1
 578 332 l 1
 571 377 554 419 522 452 c 0
 483 493 427 514 370 514 c 2
 365 514 l 2
 308 514 252 493 213 452 c 0
 181 419 164 377 157 332 c 1
368 738 m 1
 266 655 l 1
 175 655 l 1
 304 790 l 1
 431 790 l 1
 560 655 l 1
 469 655 l 1
 368 738 l 1
EndSplineSet
Validated: 1
EndChar

StartChar: edieresis
Encoding: 235 235 107
Width: 720
Flags: MW
HStem: -9 80<325 370 365 370> 252 80<157 578 157 669 157 578> 514 80<336.5 370 365 370> 662 128<217 253 216.5 253.5 482 518>
VStem: 66 91<252 252 252 332 252 332.5> 171 128<708 744> 436 128<708 744>
LayerCount: 2
Back
Fore
SplineSet
370 71 m 2
 428 71 484 92 523 134 c 1
 583 73 l 1
 527 18 449 -9 370 -9 c 2
 365 -9 l 2
 285 -9 206 18 150 75 c 0
 93 132 66 211 66 292 c 0
 66 373 93 453 150 510 c 0
 206 567 285 594 365 594 c 2
 370 594 l 2
 450 594 529 567 585 510 c 0
 642 453 669 373 669 292 c 2
 669 252 l 1
 157 252 l 1
 164 208 181 166 213 133 c 0
 252 92 308 71 365 71 c 2
 370 71 l 2
171 726 m 0
 171 762 198 790 235 790 c 0
 271 790 299 763 299 726 c 0
 299 690 272 662 235 662 c 0
 199 662 171 689 171 726 c 0
436 726 m 0
 436 762 463 790 500 790 c 0
 536 790 564 763 564 726 c 0
 564 690 537 662 500 662 c 0
 464 662 436 689 436 726 c 0
157 332 m 1
 578 332 l 1
 571 377 554 419 522 452 c 0
 483 493 427 514 370 514 c 2
 365 514 l 2
 308 514 252 493 213 452 c 0
 181 419 164 377 157 332 c 1
EndSplineSet
Validated: 1
EndChar

StartChar: igrave
Encoding: 236 236 108
Width: 279
Flags: MW
HStem: 0 21G<96 96 96 184> 565 20G<96 184 184 184>
VStem: 96 88<0 585 0 585>
LayerCount: 2
Back
Fore
SplineSet
96 0 m 1
 96 585 l 1
 184 585 l 1
 184 0 l 1
 96 0 l 1
-10 819 m 1
 105 819 l 1
 191 684 l 1
 112 684 l 1
 -10 819 l 1
EndSplineSet
Validated: 1
EndChar

StartChar: iacute
Encoding: 237 237 109
Width: 279
Flags: MW
HStem: 0 21G<96 96 96 184> 565 20G<96 184 184 184>
VStem: 96 88<0 585 0 585>
LayerCount: 2
Back
Fore
SplineSet
96 0 m 1
 96 585 l 1
 184 585 l 1
 184 0 l 1
 96 0 l 1
173 819 m 1
 290 819 l 1
 168 684 l 1
 87 684 l 1
 173 819 l 1
EndSplineSet
Validated: 1
EndChar

StartChar: icircumflex
Encoding: 238 238 110
Width: 279
Flags: MW
HStem: 0 21G<96 96 96 184> 565 20G<96 184 184 184>
VStem: 96 88<0 585 0 585>
LayerCount: 2
Back
Fore
SplineSet
96 0 m 1
 96 585 l 1
 184 585 l 1
 184 0 l 1
 96 0 l 1
140 767 m 1
 38 684 l 1
 -53 684 l 1
 76 819 l 1
 203 819 l 1
 332 684 l 1
 241 684 l 1
 140 767 l 1
EndSplineSet
Validated: 1
EndChar

StartChar: idieresis
Encoding: 239 239 111
Width: 279
Flags: MW
HStem: 0 21G<96 96 96 184> 565 20G<96 184 184 184> 691 128<-11 25 -11.5 25.5 254 290>
VStem: -57 128<737 773> 96 88<0 585 0 585> 208 128<737 773>
LayerCount: 2
Back
Fore
SplineSet
96 0 m 1
 96 585 l 1
 184 585 l 1
 184 0 l 1
 96 0 l 1
-57 755 m 0
 -57 791 -30 819 7 819 c 0
 43 819 71 792 71 755 c 0
 71 719 44 691 7 691 c 0
 -29 691 -57 718 -57 755 c 0
208 755 m 0
 208 791 235 819 272 819 c 0
 308 819 336 792 336 755 c 0
 336 719 309 691 272 691 c 0
 236 691 208 718 208 755 c 0
EndSplineSet
Validated: 1
EndChar

StartChar: ograve
Encoding: 242 242 112
Width: 735
Flags: MW
HStem: -9 80<325 370 365 370> 514 80<336.5 370 365 370>
VStem: 66 88<262.5 321.5 262.5 332.5> 581 88<262.5 321.5>
LayerCount: 2
Back
Fore
SplineSet
218 790 m 1
 333 790 l 1
 419 655 l 1
 340 655 l 1
 218 790 l 1
370 514 m 2
 365 514 l 2
 308 514 252 493 213 452 c 0
 172 409 154 351 154 292 c 0
 154 233 172 176 213 133 c 0
 252 92 308 71 365 71 c 2
 370 71 l 2
 427 71 483 92 522 133 c 0
 563 176 581 233 581 292 c 0
 581 351 563 409 522 452 c 0
 483 493 427 514 370 514 c 2
370 594 m 2
 450 594 529 567 585 510 c 0
 642 453 669 373 669 292 c 0
 669 211 642 132 585 75 c 0
 529 18 450 -9 370 -9 c 2
 365 -9 l 2
 285 -9 206 18 150 75 c 0
 93 132 66 211 66 292 c 0
 66 373 93 453 150 510 c 0
 206 567 285 594 365 594 c 2
 370 594 l 2
EndSplineSet
Validated: 1
EndChar

StartChar: oacute
Encoding: 243 243 113
Width: 735
Flags: MW
HStem: -9 80<325 370 365 370> 514 80<336.5 370 365 370>
VStem: 66 88<262.5 321.5 262.5 332.5> 581 88<262.5 321.5>
LayerCount: 2
Back
Fore
SplineSet
401 790 m 1
 518 790 l 1
 396 655 l 1
 315 655 l 1
 401 790 l 1
370 514 m 2
 365 514 l 2
 308 514 252 493 213 452 c 0
 172 409 154 351 154 292 c 0
 154 233 172 176 213 133 c 0
 252 92 308 71 365 71 c 2
 370 71 l 2
 427 71 483 92 522 133 c 0
 563 176 581 233 581 292 c 0
 581 351 563 409 522 452 c 0
 483 493 427 514 370 514 c 2
370 594 m 2
 450 594 529 567 585 510 c 0
 642 453 669 373 669 292 c 0
 669 211 642 132 585 75 c 0
 529 18 450 -9 370 -9 c 2
 365 -9 l 2
 285 -9 206 18 150 75 c 0
 93 132 66 211 66 292 c 0
 66 373 93 453 150 510 c 0
 206 567 285 594 365 594 c 2
 370 594 l 2
EndSplineSet
Validated: 1
EndChar

StartChar: ocircumflex
Encoding: 244 244 114
Width: 735
Flags: MW
HStem: -9 80<325 370 365 370> 514 80<336.5 370 365 370>
VStem: 66 88<262.5 321.5 262.5 332.5> 581 88<262.5 321.5>
LayerCount: 2
Back
Fore
SplineSet
370 514 m 2
 365 514 l 2
 308 514 252 493 213 452 c 0
 172 409 154 351 154 292 c 0
 154 233 172 176 213 133 c 0
 252 92 308 71 365 71 c 2
 370 71 l 2
 427 71 483 92 522 133 c 0
 563 176 581 233 581 292 c 0
 581 351 563 409 522 452 c 0
 483 493 427 514 370 514 c 2
370 594 m 2
 450 594 529 567 585 510 c 0
 642 453 669 373 669 292 c 0
 669 211 642 132 585 75 c 0
 529 18 450 -9 370 -9 c 2
 365 -9 l 2
 285 -9 206 18 150 75 c 0
 93 132 66 211 66 292 c 0
 66 373 93 453 150 510 c 0
 206 567 285 594 365 594 c 2
 370 594 l 2
368 738 m 1
 266 655 l 1
 175 655 l 1
 304 790 l 1
 431 790 l 1
 560 655 l 1
 469 655 l 1
 368 738 l 1
EndSplineSet
Validated: 1
EndChar

StartChar: odieresis
Encoding: 246 246 115
Width: 735
Flags: MW
HStem: -9 80<325 370 365 370> 514 80<336.5 370 365 370> 662 128<217 253 216.5 253.5 482 518>
VStem: 66 88<262.5 321.5 262.5 332.5> 171 128<708 744> 436 128<708 744> 581 88<262.5 321.5>
LayerCount: 2
Back
Fore
SplineSet
171 726 m 0
 171 762 198 790 235 790 c 0
 271 790 299 763 299 726 c 0
 299 690 272 662 235 662 c 0
 199 662 171 689 171 726 c 0
436 726 m 0
 436 762 463 790 500 790 c 0
 536 790 564 763 564 726 c 0
 564 690 537 662 500 662 c 0
 464 662 436 689 436 726 c 0
370 514 m 2
 365 514 l 2
 308 514 252 493 213 452 c 0
 172 409 154 351 154 292 c 0
 154 233 172 176 213 133 c 0
 252 92 308 71 365 71 c 2
 370 71 l 2
 427 71 483 92 522 133 c 0
 563 176 581 233 581 292 c 0
 581 351 563 409 522 452 c 0
 483 493 427 514 370 514 c 2
370 594 m 2
 450 594 529 567 585 510 c 0
 642 453 669 373 669 292 c 0
 669 211 642 132 585 75 c 0
 529 18 450 -9 370 -9 c 2
 365 -9 l 2
 285 -9 206 18 150 75 c 0
 93 132 66 211 66 292 c 0
 66 373 93 453 150 510 c 0
 206 567 285 594 365 594 c 2
 370 594 l 2
EndSplineSet
Validated: 1
EndChar

StartChar: ugrave
Encoding: 249 249 116
Width: 698
Flags: MW
HStem: -9 80<309.5 347 344 347> 0 21G<522 610 522 522> 565 20G<81 169 169 169 522 610 610 610>
VStem: 81 88<225 585> 522 88<0 72 72 72 225 585 0 585>
LayerCount: 2
Back
Fore
SplineSet
522 72 m 1x78
 482 21 416 -9 347 -9 c 2
 344 -9 l 2
 275 -9 206 11 154 57 c 0
 106 100 81 161 81 225 c 2
 81 585 l 1
 169 585 l 1
 169 225 l 2
 169 183 186 142 218 114 c 0
 252 84 298 71 344 71 c 2
 347 71 l 2xb8
 393 71 439 84 473 114 c 0
 505 142 522 183 522 225 c 2
 522 585 l 1
 610 585 l 1
 610 0 l 1
 522 0 l 1
 522 72 l 1x78
196 790 m 1
 311 790 l 1
 397 655 l 1
 318 655 l 1
 196 790 l 1
EndSplineSet
Validated: 1
EndChar

StartChar: uacute
Encoding: 250 250 117
Width: 698
Flags: MW
HStem: -9 80<309.5 347 344 347> 0 21G<522 610 522 522> 565 20G<81 169 169 169 522 610 610 610>
VStem: 81 88<225 585> 522 88<0 72 72 72 225 585 0 585>
LayerCount: 2
Back
Fore
SplineSet
522 72 m 1x78
 482 21 416 -9 347 -9 c 2
 344 -9 l 2
 275 -9 206 11 154 57 c 0
 106 100 81 161 81 225 c 2
 81 585 l 1
 169 585 l 1
 169 225 l 2
 169 183 186 142 218 114 c 0
 252 84 298 71 344 71 c 2
 347 71 l 2xb8
 393 71 439 84 473 114 c 0
 505 142 522 183 522 225 c 2
 522 585 l 1
 610 585 l 1
 610 0 l 1
 522 0 l 1
 522 72 l 1x78
379 790 m 1
 496 790 l 1
 374 655 l 1
 293 655 l 1
 379 790 l 1
EndSplineSet
Validated: 1
EndChar

StartChar: ucircumflex
Encoding: 251 251 118
Width: 698
Flags: MW
HStem: -9 80<309.5 347 344 347> 0 21G<522 610 522 522> 565 20G<81 169 169 169 522 610 610 610>
VStem: 81 88<225 585> 522 88<0 72 72 72 225 585 0 585>
LayerCount: 2
Back
Fore
SplineSet
522 72 m 1x78
 482 21 416 -9 347 -9 c 2
 344 -9 l 2
 275 -9 206 11 154 57 c 0
 106 100 81 161 81 225 c 2
 81 585 l 1
 169 585 l 1
 169 225 l 2
 169 183 186 142 218 114 c 0
 252 84 298 71 344 71 c 2
 347 71 l 2xb8
 393 71 439 84 473 114 c 0
 505 142 522 183 522 225 c 2
 522 585 l 1
 610 585 l 1
 610 0 l 1
 522 0 l 1
 522 72 l 1x78
346 738 m 1
 244 655 l 1
 153 655 l 1
 282 790 l 1
 409 790 l 1
 538 655 l 1
 447 655 l 1
 346 738 l 1
EndSplineSet
Validated: 1
EndChar

StartChar: udieresis
Encoding: 252 252 119
Width: 441
Flags: MW
HStem: 101 80<184.5 222 219 222> 772 128<70 106 69.5 106.5 335 371>
VStem: -44 88<335 695> 24 128<818 854> 289 128<818 854> 397 88<110 182 182 182 335 695 110 695>
LayerCount: 2
Back
Fore
SplineSet
24 836 m 0xd0
 24 872 51 900 88 900 c 0
 124 900 152 873 152 836 c 0
 152 800 125 772 88 772 c 0
 52 772 24 799 24 836 c 0xd0
289 836 m 0xc8
 289 872 316 900 353 900 c 0
 389 900 417 873 417 836 c 0
 417 800 390 772 353 772 c 0
 317 772 289 799 289 836 c 0xc8
397 182 m 1xe4
 357 131 291 101 222 101 c 2
 219 101 l 2
 150 101 81 121 29 167 c 0
 -19 210 -44 271 -44 335 c 2
 -44 695 l 1
 44 695 l 1
 44 335 l 2
 44 293 61 252 93 224 c 0
 127 194 173 181 219 181 c 2
 222 181 l 2
 268 181 314 194 348 224 c 0
 380 252 397 293 397 335 c 2
 397 695 l 1
 485 695 l 1
 485 110 l 1
 397 110 l 1
 397 182 l 1xe4
EndSplineSet
Validated: 1
EndChar

StartChar: yacute
Encoding: 253 253 120
Width: 603
Flags: MW
HStem: -350 21G<102 185 102 102> 565 20G<0 92 92 92 519 603 603 603>
LayerCount: 2
Back
Fore
SplineSet
0 585 m 1
 92 585 l 1
 306 106 l 1
 519 585 l 1
 603 585 l 1
 185 -350 l 1
 102 -350 l 1
 258 0 l 1
 261 0 l 1
 0 585 l 1
335 790 m 1
 452 790 l 1
 330 655 l 1
 249 655 l 1
 335 790 l 1
EndSplineSet
Validated: 1
EndChar

StartChar: ydieresis
Encoding: 255 255 121
Width: 603
Flags: MW
HStem: -350 21G<102 185 102 102> 565 20G<0 92 92 92 519 603 603 603> 662 128<151 187 150.5 187.5 416 452>
VStem: 105 128<708 744> 370 128<708 744>
LayerCount: 2
Back
Fore
SplineSet
0 585 m 1
 92 585 l 1
 306 106 l 1
 519 585 l 1
 603 585 l 1
 185 -350 l 1
 102 -350 l 1
 258 0 l 1
 261 0 l 1
 0 585 l 1
105 726 m 0
 105 762 132 790 169 790 c 0
 205 790 233 763 233 726 c 0
 233 690 206 662 169 662 c 0
 133 662 105 689 105 726 c 0
370 726 m 0
 370 762 397 790 434 790 c 0
 470 790 498 763 498 726 c 0
 498 690 471 662 434 662 c 0
 398 662 370 689 370 726 c 0
EndSplineSet
Validated: 1
EndChar

StartChar: Abreve
Encoding: 258 258 122
Width: 816
Flags: MW
HStem: 0 21G<15 15 15 98 710 710 710 801> 252 80<228 580 228 611 197 580> 880 20G<368 448 448 448> 954 72<387 409 407 409>
VStem: 258 79<1082 1102> 479 78<1082 1102 1082 1102>
LayerCount: 2
Back
Fore
SplineSet
15 0 m 1
 368 900 l 1
 448 900 l 1
 801 0 l 1
 710 0 l 1
 611 252 l 1
 197 252 l 1
 98 0 l 1
 15 0 l 1
409 1026 m 2
 451 1026 479 1060 479 1102 c 1
 557 1102 l 1
 557 1062 544 1024 516 996 c 0
 488 968 449 954 409 954 c 2
 407 954 l 2
 367 954 328 968 300 996 c 0
 272 1024 258 1062 258 1102 c 1
 337 1102 l 1
 337 1060 365 1026 407 1026 c 2
 409 1026 l 2
228 332 m 1
 580 332 l 1
 404 779 l 1
 228 332 l 1
EndSplineSet
Validated: 1
EndChar

StartChar: abreve
Encoding: 259 259 123
Width: 684
Flags: MW
HStem: -9 80<295.5 333 329 333> 0 21G<507 595 507 507> 282 80<292 333 329 333> 514 80<295.5 333 329 333> 619 71<310 331 330 331>
VStem: 66 88<149 203> 181 79<747 767> 402 78<747 767 747 767> 507 88<0 55 55 55 138 214.5 298 398 0 415>
LayerCount: 2
Back
Fore
SplineSet
333 362 m 2xbf80
 397 362 464 341 507 298 c 1
 507 398 l 2
 507 432 487 462 458 481 c 0
 421 506 377 514 333 514 c 2
 329 514 l 2
 262 514 192 491 165 440 c 1
 90 484 l 1
 103 505 120 524 140 539 c 0
 194 579 262 594 329 594 c 2
 333 594 l 2
 400 594 468 579 522 539 c 0
 567 505 595 454 595 398 c 2
 595 0 l 1
 507 0 l 1x7f80
 507 55 l 1
 464 12 397 -9 333 -9 c 2
 329 -9 l 2
 262 -9 195 4 140 43 c 0
 96 74 66 122 66 176 c 0
 66 230 96 279 140 310 c 0
 195 349 262 362 329 362 c 2
 333 362 l 2xbf80
331 690 m 2
 373 690 402 725 402 767 c 1
 480 767 l 1
 480 727 467 688 439 660 c 0
 411 632 371 619 331 619 c 2
 330 619 l 2
 290 619 251 632 223 660 c 0
 195 688 181 727 181 767 c 1
 260 767 l 1
 260 725 288 690 330 690 c 2
 331 690 l 2
333 71 m 2xbf80
 406 71 507 100 507 176 c 0
 507 253 407 282 333 282 c 2
 329 282 l 2
 255 282 154 253 154 176 c 0
 154 99 255 71 329 71 c 2
 333 71 l 2xbf80
EndSplineSet
Validated: 1
EndChar

StartChar: Cacute
Encoding: 262 262 124
Width: 992
Flags: MW
HStem: -9 80<451 518 511 518> 829 80<462.5 518 511 518>
VStem: 66 88<400 500 400 511>
LayerCount: 2
Back
Fore
SplineSet
896 706 m 1
 821 661 l 1
 808 683 793 704 775 723 c 0
 709 793 615 829 518 829 c 2
 511 829 l 2
 414 829 320 793 254 723 c 0
 185 650 154 550 154 450 c 0
 154 350 185 250 254 177 c 0
 320 107 414 71 511 71 c 2
 518 71 l 2
 615 71 709 107 775 177 c 0
 793 196 808 217 821 239 c 1
 896 194 l 1
 880 167 860 143 838 120 c 0
 755 34 638 -9 518 -9 c 2
 511 -9 l 2
 391 -9 274 34 191 120 c 0
 106 208 66 328 66 450 c 0
 66 572 106 692 191 780 c 0
 274 866 391 909 511 909 c 2
 518 909 l 2
 638 909 755 866 838 780 c 0
 860 757 880 733 896 706 c 1
548 1125 m 1
 665 1125 l 1
 543 990 l 1
 462 990 l 1
 548 1125 l 1
EndSplineSet
Validated: 1
EndChar

StartChar: cacute
Encoding: 263 263 125
Width: 713
Flags: MW
HStem: -9 80<325 370 365 370> 514 80<336.5 370 365 370>
VStem: 66 88<262.5 321.5 262.5 332.5>
LayerCount: 2
Back
Fore
SplineSet
401 790 m 1
 518 790 l 1
 396 655 l 1
 315 655 l 1
 401 790 l 1
365 -9 m 2
 285 -9 206 18 150 75 c 0
 93 132 66 211 66 292 c 0
 66 373 93 453 150 510 c 0
 206 567 285 594 365 594 c 2
 370 594 l 2
 450 594 529 567 585 510 c 0
 605 490 621 467 634 442 c 1
 556 402 l 1
 547 420 536 437 522 452 c 0
 483 493 427 514 370 514 c 2
 365 514 l 2
 308 514 252 493 213 452 c 0
 172 409 154 351 154 292 c 0
 154 233 172 176 213 133 c 0
 252 92 308 71 365 71 c 2
 370 71 l 2
 427 71 483 92 522 133 c 0
 536 148 547 165 556 183 c 1
 634 143 l 1
 621 118 605 95 585 75 c 0
 529 18 450 -9 370 -9 c 2
 365 -9 l 2
EndSplineSet
Validated: 1
EndChar

StartChar: Ccaron
Encoding: 268 268 126
Width: 992
Flags: MW
HStem: -9 80<451 518 511 518> 829 80<462.5 518 511 518>
VStem: 66 88<400 500 400 511>
LayerCount: 2
Back
Fore
SplineSet
896 706 m 1
 821 661 l 1
 808 683 793 704 775 723 c 0
 709 793 615 829 518 829 c 2
 511 829 l 2
 414 829 320 793 254 723 c 0
 185 650 154 550 154 450 c 0
 154 350 185 250 254 177 c 0
 320 107 414 71 511 71 c 2
 518 71 l 2
 615 71 709 107 775 177 c 0
 793 196 808 217 821 239 c 1
 896 194 l 1
 880 167 860 143 838 120 c 0
 755 34 638 -9 518 -9 c 2
 511 -9 l 2
 391 -9 274 34 191 120 c 0
 106 208 66 328 66 450 c 0
 66 572 106 692 191 780 c 0
 274 866 391 909 511 909 c 2
 518 909 l 2
 638 909 755 866 838 780 c 0
 860 757 880 733 896 706 c 1
578 990 m 1
 451 990 l 1
 322 1125 l 1
 413 1125 l 1
 514 1042 l 1
 616 1125 l 1
 707 1125 l 1
 578 990 l 1
EndSplineSet
Validated: 1
EndChar

StartChar: ccaron
Encoding: 269 269 127
Width: 713
Flags: MW
HStem: -9 80<325 370 365 370> 514 80<336.5 370 365 370>
VStem: 66 88<262.5 321.5 262.5 332.5>
LayerCount: 2
Back
Fore
SplineSet
365 -9 m 2
 285 -9 206 18 150 75 c 0
 93 132 66 211 66 292 c 0
 66 373 93 453 150 510 c 0
 206 567 285 594 365 594 c 2
 370 594 l 2
 450 594 529 567 585 510 c 0
 605 490 621 467 634 442 c 1
 556 402 l 1
 547 420 536 437 522 452 c 0
 483 493 427 514 370 514 c 2
 365 514 l 2
 308 514 252 493 213 452 c 0
 172 409 154 351 154 292 c 0
 154 233 172 176 213 133 c 0
 252 92 308 71 365 71 c 2
 370 71 l 2
 427 71 483 92 522 133 c 0
 536 148 547 165 556 183 c 1
 634 143 l 1
 621 118 605 95 585 75 c 0
 529 18 450 -9 370 -9 c 2
 365 -9 l 2
431 655 m 1
 304 655 l 1
 175 790 l 1
 266 790 l 1
 368 707 l 1
 469 790 l 1
 560 790 l 1
 431 655 l 1
EndSplineSet
Validated: 1
EndChar

StartChar: Dcaron
Encoding: 270 270 128
Width: 919
Flags: MW
HStem: 0 80<191 395 191 395> 820 80<191 191 191 395>
VStem: 103 88<80 820 80 900 80 900> 765 88<400.5 499.5>
LayerCount: 2
Back
Fore
SplineSet
103 0 m 1
 103 900 l 1
 395 900 l 2
 517 900 638 860 725 774 c 0
 811 689 853 571 853 450 c 0
 853 329 811 211 725 126 c 0
 638 40 517 0 395 0 c 2
 103 0 l 1
191 820 m 1
 191 80 l 1
 395 80 l 2
 494 80 591 114 661 184 c 0
 731 254 765 351 765 450 c 0
 765 549 731 646 661 716 c 0
 591 786 494 820 395 820 c 2
 191 820 l 1
461 990 m 1
 333 990 l 1
 204 1125 l 1
 295 1125 l 1
 397 1042 l 1
 498 1125 l 1
 590 1125 l 1
 461 990 l 1
EndSplineSet
Validated: 1
EndChar

StartChar: Ecaron
Encoding: 282 282 129
Width: 684
Flags: MW
HStem: 0 80<191 632 191 632> 410 80<191 588 191 588> 820 80<191 632 191 191>
VStem: 103 88<80 410 490 820>
CounterMasks: 1 e0
LayerCount: 2
Back
Fore
SplineSet
103 0 m 1
 103 900 l 1
 632 900 l 1
 632 820 l 1
 191 820 l 1
 191 490 l 1
 588 490 l 1
 588 410 l 1
 191 410 l 1
 191 80 l 1
 632 80 l 1
 632 0 l 1
 103 0 l 1
431 990 m 1
 304 990 l 1
 175 1125 l 1
 266 1125 l 1
 368 1042 l 1
 469 1125 l 1
 560 1125 l 1
 431 990 l 1
EndSplineSet
Validated: 1
EndChar

StartChar: ecaron
Encoding: 283 283 130
Width: 720
Flags: MW
HStem: -9 80<325 370 365 370> 252 80<157 578 157 669 157 578> 514 80<336.5 370 365 370>
VStem: 66 91<252 252 252 332 252 332.5>
LayerCount: 2
Back
Fore
SplineSet
370 71 m 2
 428 71 484 92 523 134 c 1
 583 73 l 1
 527 18 449 -9 370 -9 c 2
 365 -9 l 2
 285 -9 206 18 150 75 c 0
 93 132 66 211 66 292 c 0
 66 373 93 453 150 510 c 0
 206 567 285 594 365 594 c 2
 370 594 l 2
 450 594 529 567 585 510 c 0
 642 453 669 373 669 292 c 2
 669 252 l 1
 157 252 l 1
 164 208 181 166 213 133 c 0
 252 92 308 71 365 71 c 2
 370 71 l 2
157 332 m 1
 578 332 l 1
 571 377 554 419 522 452 c 0
 483 493 427 514 370 514 c 2
 365 514 l 2
 308 514 252 493 213 452 c 0
 181 419 164 377 157 332 c 1
431 655 m 1
 304 655 l 1
 175 790 l 1
 266 790 l 1
 368 707 l 1
 469 790 l 1
 560 790 l 1
 431 655 l 1
EndSplineSet
Validated: 1
EndChar

StartChar: Gbreve
Encoding: 286 286 131
Width: 1044
Flags: MW
HStem: -9 80<451 518 511 518> 0 21G<875 963 875 875> 410 80<515 873 515 963> 829 80<462.5 518 511 518> 954 72<494 515 514 515>
VStem: 66 88<400 500 400 511> 365 78<1082 1102> 586 78<1082 1102 1082 1102> 875 88<0 164 164 164>
LayerCount: 2
Back
Fore
SplineSet
963 0 m 1x7f80
 875 0 l 1x7f80
 875 164 l 1
 864 149 851 134 838 120 c 0
 755 34 638 -9 518 -9 c 2
 511 -9 l 2
 391 -9 274 34 191 120 c 0
 106 208 66 328 66 450 c 0
 66 572 106 692 191 780 c 0
 274 866 391 909 511 909 c 2
 518 909 l 2
 638 909 755 866 838 780 c 0
 846 771 855 763 862 754 c 1
 795 699 l 1
 732 780 627 829 518 829 c 2
 511 829 l 2
 414 829 320 793 254 723 c 0
 185 650 154 550 154 450 c 0
 154 350 185 250 254 177 c 0
 320 107 414 71 511 71 c 2
 518 71 l 2xbf80
 615 71 709 107 775 177 c 0
 835 240 866 324 873 410 c 1
 515 410 l 1
 515 490 l 1
 963 490 l 1
 963 0 l 1x7f80
515 1026 m 2
 557 1026 586 1060 586 1102 c 1
 664 1102 l 1
 664 1062 650 1024 622 996 c 0
 594 968 555 954 515 954 c 2
 514 954 l 2
 474 954 435 968 407 996 c 0
 379 1024 365 1062 365 1102 c 1
 443 1102 l 1
 443 1060 472 1026 514 1026 c 2
 515 1026 l 2
EndSplineSet
Validated: 1
EndChar

StartChar: gbreve
Encoding: 287 287 132
Width: 757
Flags: MW
HStem: -359 80<325 370 365 370> 0 80<325 370 365 370> 514 80<336.5 370 365 370> 565 20G<581 669 669 669> 619 71<347 368 367 368>
VStem: 66 88<268 326 268 337> 218 78<747 767> 439 78<747 767 747 767> 581 88<-64 114 114 114 268 326 480 585>
LayerCount: 2
Back
Fore
SplineSet
669 585 m 1xdf80
 669 -64 l 2
 669 -143 641 -220 585 -276 c 0
 528 -332 450 -359 370 -359 c 2
 365 -359 l 2
 285 -359 207 -332 150 -276 c 0
 131 -258 115 -237 103 -214 c 1
 180 -172 l 1
 189 -189 199 -205 213 -219 c 0
 253 -260 308 -279 365 -279 c 2
 370 -279 l 2
 427 -279 482 -260 522 -219 c 0
 562 -178 581 -121 581 -64 c 2
 581 114 l 1
 574 103 566 93 558 83 c 0
 511 29 442 0 370 0 c 2
 365 0 l 2
 285 0 207 27 150 83 c 0
 94 139 66 217 66 297 c 0
 66 377 94 455 150 511 c 0
 207 567 285 594 365 594 c 2
 370 594 l 2xef80
 442 594 511 565 558 511 c 0
 566 501 574 491 581 480 c 1
 581 585 l 1
 669 585 l 1xdf80
368 690 m 2
 410 690 439 725 439 767 c 1
 517 767 l 1
 517 727 503 688 475 660 c 0
 447 632 408 619 368 619 c 2
 367 619 l 2
 327 619 288 632 260 660 c 0
 232 688 218 727 218 767 c 1
 296 767 l 1
 296 725 325 690 367 690 c 2
 368 690 l 2
370 514 m 2
 365 514 l 2
 308 514 253 494 213 453 c 0
 173 412 154 355 154 297 c 0
 154 239 173 182 213 141 c 0
 253 100 308 80 365 80 c 2
 370 80 l 2
 427 80 482 100 522 141 c 0
 562 182 581 239 581 297 c 0
 581 355 562 412 522 453 c 0
 482 494 427 514 370 514 c 2
EndSplineSet
Validated: 1
EndChar

StartChar: dotlessi
Encoding: 305 305 133
Width: 279
Flags: MW
HStem: 0 21G<96 96 96 184> 565 20G<96 184 184 184>
VStem: 96 88<0 585 0 585>
LayerCount: 2
Back
Fore
SplineSet
96 0 m 1
 96 585 l 1
 184 585 l 1
 184 0 l 1
 96 0 l 1
EndSplineSet
Validated: 1
EndChar

StartChar: Lacute
Encoding: 313 313 134
Width: 632
Flags: MW
HStem: 0 80<191 632 191 632> 880 20G<103 191 191 191>
VStem: 103 88<80 900 80 900 80 900>
LayerCount: 2
Back
Fore
SplineSet
103 0 m 1
 103 900 l 1
 191 900 l 1
 191 80 l 1
 632 80 l 1
 632 0 l 1
 103 0 l 1
180 1125 m 1
 297 1125 l 1
 175 990 l 1
 94 990 l 1
 180 1125 l 1
EndSplineSet
Validated: 1
EndChar

StartChar: lacute
Encoding: 314 314 135
Width: 294
Flags: MW
HStem: 0 21G<103 103 103 191> 930 20G<103 191 191 191>
VStem: 103 88<0 950 0 950>
LayerCount: 2
Back
Fore
SplineSet
103 0 m 1
 103 950 l 1
 191 950 l 1
 191 0 l 1
 103 0 l 1
195 1187 m 1
 312 1187 l 1
 190 1053 l 1
 109 1053 l 1
 195 1187 l 1
EndSplineSet
Validated: 1
EndChar

StartChar: Nacute
Encoding: 323 323 136
Width: 919
Flags: MW
HStem: 0 21G<107 107 107 187 732 732 732 812> 880 20G<107 187 187 187 732 812 812 812>
VStem: 107 80<0 763 0 900> 732 80<0 900 137 900 0 900>
LayerCount: 2
Back
Fore
SplineSet
107 0 m 1
 107 900 l 1
 187 900 l 1
 732 137 l 1
 732 900 l 1
 812 900 l 1
 812 0 l 1
 732 0 l 1
 187 763 l 1
 187 0 l 1
 107 0 l 1
493 1125 m 1
 610 1125 l 1
 488 990 l 1
 407 990 l 1
 493 1125 l 1
EndSplineSet
Validated: 1
EndChar

StartChar: nacute
Encoding: 324 324 137
Width: 698
Flags: MW
HStem: 0 21G<88 176 88 88 529 617 529 529> 514 80<359 390 386 390> 565 20G<88 176 176 176>
VStem: 88 88<0 360 504 585> 529 88<0 360 0 380.5>
LayerCount: 2
Back
Fore
SplineSet
176 504 m 1xb8
 223 562 305 594 386 594 c 2
 390 594 l 2
 451 594 511 572 554 528 c 0
 597 483 617 422 617 360 c 2
 617 0 l 1
 529 0 l 1
 529 360 l 2
 529 401 517 441 490 471 c 0
 464 499 428 514 390 514 c 2
 386 514 l 2xd8
 332 514 278 503 235 471 c 0
 199 445 176 404 176 360 c 2
 176 0 l 1
 88 0 l 1
 88 585 l 1
 176 585 l 1
 176 504 l 1xb8
386 790 m 1
 503 790 l 1
 381 655 l 1
 300 655 l 1
 386 790 l 1
EndSplineSet
Validated: 1
EndChar

StartChar: Ncaron
Encoding: 327 327 138
Width: 919
Flags: MW
HStem: 0 21G<107 107 107 187 732 732 732 812> 880 20G<107 187 187 187 732 812 812 812>
VStem: 107 80<0 763 0 900> 732 80<0 900 137 900 0 900>
LayerCount: 2
Back
Fore
SplineSet
107 0 m 1
 107 900 l 1
 187 900 l 1
 732 137 l 1
 732 900 l 1
 812 900 l 1
 812 0 l 1
 732 0 l 1
 187 763 l 1
 187 0 l 1
 107 0 l 1
523 990 m 1
 396 990 l 1
 267 1125 l 1
 358 1125 l 1
 460 1042 l 1
 561 1125 l 1
 652 1125 l 1
 523 990 l 1
EndSplineSet
Validated: 1
EndChar

StartChar: ncaron
Encoding: 328 328 139
Width: 698
Flags: MW
HStem: 0 21G<88 176 88 88 529 617 529 529> 514 80<359 390 386 390> 565 20G<88 176 176 176>
VStem: 88 88<0 360 504 585> 529 88<0 360 0 380.5>
LayerCount: 2
Back
Fore
SplineSet
176 504 m 1xb8
 223 562 305 594 386 594 c 2
 390 594 l 2
 451 594 511 572 554 528 c 0
 597 483 617 422 617 360 c 2
 617 0 l 1
 529 0 l 1
 529 360 l 2
 529 401 517 441 490 471 c 0
 464 499 428 514 390 514 c 2
 386 514 l 2xd8
 332 514 278 503 235 471 c 0
 199 445 176 404 176 360 c 2
 176 0 l 1
 88 0 l 1
 88 585 l 1
 176 585 l 1
 176 504 l 1xb8
417 655 m 1
 289 655 l 1
 160 790 l 1
 251 790 l 1
 353 707 l 1
 454 790 l 1
 545 790 l 1
 417 655 l 1
EndSplineSet
Validated: 1
EndChar

StartChar: Racute
Encoding: 340 340 140
Width: 742
Flags: MW
HStem: 0 21G<103 103 103 191 602 602 602 706> 365 80<191 385 385 400 191 385> 820 80<191 191 191 385>
VStem: 103 88<0 365 0 445 445 820> 618 88<605.5 658.5>
LayerCount: 2
Back
Fore
SplineSet
103 0 m 1
 103 900 l 1
 385 900 l 2
 468 900 552 878 616 825 c 0
 673 777 706 706 706 632 c 0
 706 558 673 488 616 440 c 0
 580 409 536 388 490 377 c 1
 706 0 l 1
 602 0 l 1
 400 365 l 1
 191 365 l 1
 191 0 l 1
 103 0 l 1
372 1125 m 1
 489 1125 l 1
 367 990 l 1
 286 990 l 1
 372 1125 l 1
191 820 m 1
 191 445 l 1
 385 445 l 2
 445 445 505 459 552 497 c 0
 593 530 618 579 618 632 c 0
 618 685 593 734 552 767 c 0
 505 805 445 820 385 820 c 2
 191 820 l 1
EndSplineSet
Validated: 1
EndChar

StartChar: racute
Encoding: 341 341 141
Width: 397
Flags: MW
HStem: 0 21G<88 88 88 176> 514 80<296 315> 565 20G<88 176 176 176>
VStem: 88 88<0 360 524 585>
LayerCount: 2
Back
Fore
SplineSet
88 0 m 1xd0
 88 585 l 1
 176 585 l 1xb0
 176 524 l 1
 209 566 260 594 315 594 c 1
 315 514 l 1
 277 514 240 499 215 471 c 0
 188 441 176 401 176 360 c 2
 176 0 l 1
 88 0 l 1xd0
298 790 m 1
 415 790 l 1
 293 655 l 1
 212 655 l 1
 298 790 l 1
EndSplineSet
Validated: 1
EndChar

StartChar: Rcaron
Encoding: 344 344 142
Width: 742
Flags: MW
HStem: 0 21G<103 103 103 191 602 602 602 706> 365 80<191 385 385 400 191 385> 820 80<191 191 191 385>
VStem: 103 88<0 365 0 445 445 820> 618 88<605.5 658.5>
LayerCount: 2
Back
Fore
SplineSet
103 0 m 1
 103 900 l 1
 385 900 l 2
 468 900 552 878 616 825 c 0
 673 777 706 706 706 632 c 0
 706 558 673 488 616 440 c 0
 580 409 536 388 490 377 c 1
 706 0 l 1
 602 0 l 1
 400 365 l 1
 191 365 l 1
 191 0 l 1
 103 0 l 1
191 820 m 1
 191 445 l 1
 385 445 l 2
 445 445 505 459 552 497 c 0
 593 530 618 579 618 632 c 0
 618 685 593 734 552 767 c 0
 505 805 445 820 385 820 c 2
 191 820 l 1
402 990 m 1
 274 990 l 1
 145 1125 l 1
 237 1125 l 1
 338 1042 l 1
 440 1125 l 1
 531 1125 l 1
 402 990 l 1
EndSplineSet
Validated: 1
EndChar

StartChar: rcaron
Encoding: 345 345 143
Width: 397
Flags: MW
HStem: 0 21G<88 88 88 176> 514 80<296 315> 565 20G<88 176 176 176>
VStem: 88 88<0 360 524 585>
LayerCount: 2
Back
Fore
SplineSet
88 0 m 1xd0
 88 585 l 1
 176 585 l 1xb0
 176 524 l 1
 209 566 260 594 315 594 c 1
 315 514 l 1
 277 514 240 499 215 471 c 0
 188 441 176 401 176 360 c 2
 176 0 l 1
 88 0 l 1xd0
328 655 m 1
 201 655 l 1
 72 790 l 1
 163 790 l 1
 264 707 l 1
 366 790 l 1
 457 790 l 1
 328 655 l 1
EndSplineSet
Validated: 1
EndChar

StartChar: Sacute
Encoding: 346 346 144
Width: 757
Flags: MW
HStem: -9 80<336 380 377 380> 410 80<293.5 390 367 390> 829 80<325.5 380 377 380>
VStem: 94 88<608.5 708.5 608.5 731> 610 88<186.5 294.5>
CounterMasks: 1 e0
LayerCount: 2
Back
Fore
SplineSet
377 -9 m 2
 295 -9 212 10 148 61 c 0
 119 84 95 112 80 145 c 1
 159 182 l 1
 170 157 188 135 211 118 c 0
 258 83 318 71 377 71 c 2
 380 71 l 2
 497 71 610 133 610 240 c 0
 610 349 492 410 371 410 c 2
 367 410 l 2
 220 410 94 517 94 659 c 0
 94 803 226 909 377 909 c 2
 380 909 l 2
 454 909 528 888 584 839 c 0
 611 816 631 787 644 755 c 1
 564 721 l 1
 555 744 540 765 521 782 c 0
 483 815 431 829 380 829 c 2
 377 829 l 2
 274 829 182 758 182 659 c 0
 182 558 279 490 386 490 c 2
 390 490 l 2
 550 490 698 390 698 240 c 0
 698 88 544 -9 380 -9 c 2
 377 -9 l 2
412 1125 m 1
 529 1125 l 1
 407 990 l 1
 326 990 l 1
 412 1125 l 1
EndSplineSet
Validated: 1
EndChar

StartChar: sacute
Encoding: 347 347 145
Width: 603
Flags: MW
HStem: -9 80<268.5 303 300 303> 252 80<239 307 295 307> 514 80<266.5 303 300 303>
VStem: 79 88<392.5 453 392.5 475.5> 463 88<128 196.5>
LayerCount: 2
Back
Fore
SplineSet
142 144 m 1
 159 91 237 71 300 71 c 2
 303 71 l 2
 381 71 463 94 463 162 c 0
 463 231 378 252 298 252 c 2
 295 252 l 2
 183 252 79 319 79 423 c 0
 79 528 186 594 300 594 c 2
 303 594 l 2
 360 594 417 581 462 546 c 0
 486 527 504 502 514 474 c 1
 432 445 l 1
 417 492 359 514 303 514 c 2
 300 514 l 2
 233 514 167 483 167 423 c 0
 167 362 236 332 305 332 c 2
 307 332 l 2
 430 332 551 273 551 162 c 0
 551 50 428 -9 303 -9 c 2
 300 -9 l 2
 237 -9 173 3 121 39 c 0
 94 57 74 82 62 111 c 1
 142 144 l 1
335 790 m 1
 452 790 l 1
 330 655 l 1
 249 655 l 1
 335 790 l 1
EndSplineSet
Validated: 1
EndChar

StartChar: Scaron
Encoding: 352 352 146
Width: 757
Flags: MW
HStem: -9 80<336 380 377 380> 410 80<293.5 390 367 390> 829 80<325.5 380 377 380>
VStem: 94 88<608.5 708.5 608.5 731> 610 88<186.5 294.5>
CounterMasks: 1 e0
LayerCount: 2
Back
Fore
SplineSet
377 -9 m 2
 295 -9 212 10 148 61 c 0
 119 84 95 112 80 145 c 1
 159 182 l 1
 170 157 188 135 211 118 c 0
 258 83 318 71 377 71 c 2
 380 71 l 2
 497 71 610 133 610 240 c 0
 610 349 492 410 371 410 c 2
 367 410 l 2
 220 410 94 517 94 659 c 0
 94 803 226 909 377 909 c 2
 380 909 l 2
 454 909 528 888 584 839 c 0
 611 816 631 787 644 755 c 1
 564 721 l 1
 555 744 540 765 521 782 c 0
 483 815 431 829 380 829 c 2
 377 829 l 2
 274 829 182 758 182 659 c 0
 182 558 279 490 386 490 c 2
 390 490 l 2
 550 490 698 390 698 240 c 0
 698 88 544 -9 380 -9 c 2
 377 -9 l 2
442 990 m 1
 315 990 l 1
 186 1125 l 1
 277 1125 l 1
 378 1042 l 1
 480 1125 l 1
 571 1125 l 1
 442 990 l 1
EndSplineSet
Validated: 1
EndChar

StartChar: scaron
Encoding: 353 353 147
Width: 603
Flags: MW
HStem: -9 80<268.5 303 300 303> 252 80<239 307 295 307> 514 80<266.5 303 300 303>
VStem: 79 88<392.5 453 392.5 475.5> 463 88<128 196.5>
LayerCount: 2
Back
Fore
SplineSet
142 144 m 1
 159 91 237 71 300 71 c 2
 303 71 l 2
 381 71 463 94 463 162 c 0
 463 231 378 252 298 252 c 2
 295 252 l 2
 183 252 79 319 79 423 c 0
 79 528 186 594 300 594 c 2
 303 594 l 2
 360 594 417 581 462 546 c 0
 486 527 504 502 514 474 c 1
 432 445 l 1
 417 492 359 514 303 514 c 2
 300 514 l 2
 233 514 167 483 167 423 c 0
 167 362 236 332 305 332 c 2
 307 332 l 2
 430 332 551 273 551 162 c 0
 551 50 428 -9 303 -9 c 2
 300 -9 l 2
 237 -9 173 3 121 39 c 0
 94 57 74 82 62 111 c 1
 142 144 l 1
365 655 m 1
 238 655 l 1
 109 790 l 1
 200 790 l 1
 302 707 l 1
 403 790 l 1
 494 790 l 1
 365 655 l 1
EndSplineSet
Validated: 1
EndChar

StartChar: Tcaron
Encoding: 356 356 148
Width: 676
Flags: MW
HStem: 0 21G<294 382 294 294> 820 80<4 672 4 294 382 382 382 672>
VStem: 294 88<0 820 0 820>
LayerCount: 2
Back
Fore
SplineSet
4 820 m 1
 4 900 l 1
 672 900 l 1
 672 820 l 1
 382 820 l 1
 382 0 l 1
 294 0 l 1
 294 820 l 1
 4 820 l 1
402 990 m 1
 274 990 l 1
 145 1125 l 1
 237 1125 l 1
 338 1042 l 1
 440 1125 l 1
 531 1125 l 1
 402 990 l 1
EndSplineSet
Validated: 1
EndChar

StartChar: Uring
Encoding: 366 366 149
Width: 867
Flags: MW
HStem: -9 80<386 436 431 436> 880 20G<96 184 184 184 684 772 772 772> 963 54<419.5 434 433 434> 1098 54<421 434 433 434>
VStem: 96 88<320 900> 331 58<1045 1069 1045 1070> 478 59<1045 1069> 684 88<320 900>
LayerCount: 2
Back
Fore
SplineSet
772 900 m 1
 772 320 l 2
 772 232 741 145 678 83 c 0
 614 20 526 -9 436 -9 c 2
 431 -9 l 2
 341 -9 254 20 190 83 c 0
 127 145 96 232 96 320 c 2
 96 900 l 1
 184 900 l 1
 184 320 l 2
 184 253 206 188 253 141 c 0
 300 94 365 71 431 71 c 2
 436 71 l 2
 502 71 567 94 614 141 c 0
 661 188 684 253 684 320 c 2
 684 900 l 1
 772 900 l 1
537 1057 m 0
 537 1001 489 963 434 963 c 2
 433 963 l 2
 406 963 379 972 359 990 c 0
 340 1007 331 1031 331 1057 c 0
 331 1083 340 1108 359 1125 c 0
 379 1143 406 1152 433 1152 c 2
 434 1152 l 2
 461 1152 488 1143 508 1125 c 0
 527 1108 537 1083 537 1057 c 0
434 1098 m 2
 433 1098 l 2
 409 1098 389 1081 389 1057 c 0
 389 1033 409 1017 433 1017 c 2
 434 1017 l 2
 458 1017 478 1033 478 1057 c 0
 478 1081 458 1098 434 1098 c 2
EndSplineSet
Validated: 1
EndChar

StartChar: uring
Encoding: 367 367 150
Width: 698
Flags: MW
HStem: -9 80<309.5 347 344 347> 0 21G<522 610 522 522> 565 20G<81 169 169 169 522 610 610 610> 628 53<331.5 346 345 346> 763 53<333 346 345 346>
VStem: 81 88<225 585> 243 58<710 734 710 735> 390 58<710 734> 522 88<0 72 72 72 225 585 0 585>
LayerCount: 2
Back
Fore
SplineSet
522 72 m 1x7f80
 482 21 416 -9 347 -9 c 2
 344 -9 l 2
 275 -9 206 11 154 57 c 0
 106 100 81 161 81 225 c 2
 81 585 l 1
 169 585 l 1
 169 225 l 2
 169 183 186 142 218 114 c 0
 252 84 298 71 344 71 c 2
 347 71 l 2xbf80
 393 71 439 84 473 114 c 0
 505 142 522 183 522 225 c 2
 522 585 l 1
 610 585 l 1
 610 0 l 1
 522 0 l 1
 522 72 l 1x7f80
346 816 m 2
 373 816 400 808 420 790 c 0
 439 773 448 748 448 722 c 0
 448 696 439 671 420 654 c 0
 400 636 373 628 346 628 c 2
 345 628 l 2
 318 628 291 636 271 654 c 0
 252 671 243 696 243 722 c 0
 243 748 252 773 271 790 c 0
 291 808 318 816 345 816 c 2
 346 816 l 2
346 763 m 2
 345 763 l 2
 321 763 301 746 301 722 c 0
 301 698 321 681 345 681 c 2
 346 681 l 2
 370 681 390 698 390 722 c 0
 390 746 370 763 346 763 c 2
EndSplineSet
Validated: 1
EndChar

StartChar: Ydieresis
Encoding: 376 376 151
Width: 735
Flags: MW
HStem: 0 21G<323 412 323 323> 880 20G<-7 93 93 93 651 742 742 742> 997 128<217 253 216.5 253.5 482 518>
VStem: 171 128<1043 1079> 323 89<0 337 0 337> 436 128<1043 1079>
CounterMasks: 1 1c
LayerCount: 2
Back
Fore
SplineSet
-7 900 m 1
 93 900 l 1
 372 425 l 1
 651 900 l 1
 742 900 l 1
 412 337 l 1
 412 0 l 1
 323 0 l 1
 323 337 l 1
 -7 900 l 1
171 1061 m 0
 171 1097 198 1125 235 1125 c 0
 271 1125 299 1098 299 1061 c 0
 299 1025 272 997 235 997 c 0
 199 997 171 1024 171 1061 c 0
436 1061 m 0
 436 1097 463 1125 500 1125 c 0
 536 1125 564 1098 564 1061 c 0
 564 1025 537 997 500 997 c 0
 464 997 436 1024 436 1061 c 0
EndSplineSet
Validated: 1
EndChar

StartChar: Zacute
Encoding: 377 377 152
Width: 735
Flags: MW
HStem: 0 80<134 706 29 29> 820 80<29 706 29 601 29 706>
LayerCount: 2
Back
Fore
SplineSet
29 820 m 1
 29 900 l 1
 706 900 l 1
 706 820 l 1
 134 80 l 1
 706 80 l 1
 706 0 l 1
 29 0 l 1
 29 80 l 1
 601 820 l 1
 29 820 l 1
401 1125 m 1
 518 1125 l 1
 396 990 l 1
 315 990 l 1
 401 1125 l 1
EndSplineSet
Validated: 1
EndChar

StartChar: zacute
Encoding: 378 378 153
Width: 559
Flags: MW
HStem: 0 80<159 515 44 44> 505 80<44 515 44 400 44 515>
LayerCount: 2
Back
Fore
SplineSet
44 505 m 1
 44 585 l 1
 515 585 l 1
 515 505 l 1
 159 80 l 1
 515 80 l 1
 515 0 l 1
 44 0 l 1
 44 80 l 1
 400 505 l 1
 44 505 l 1
313 790 m 1
 430 790 l 1
 308 655 l 1
 227 655 l 1
 313 790 l 1
EndSplineSet
Validated: 1
EndChar

StartChar: Zcaron
Encoding: 381 381 154
Width: 735
Flags: MW
HStem: 0 80<134 706 29 29> 820 80<29 706 29 601 29 706>
LayerCount: 2
Back
Fore
SplineSet
29 820 m 1
 29 900 l 1
 706 900 l 1
 706 820 l 1
 134 80 l 1
 706 80 l 1
 706 0 l 1
 29 0 l 1
 29 80 l 1
 601 820 l 1
 29 820 l 1
431 990 m 1
 304 990 l 1
 175 1125 l 1
 266 1125 l 1
 368 1042 l 1
 469 1125 l 1
 560 1125 l 1
 431 990 l 1
EndSplineSet
Validated: 1
EndChar

StartChar: zcaron
Encoding: 382 382 155
Width: 559
Flags: MW
HStem: 0 80<159 515 44 44> 505 80<44 515 44 400 44 515>
LayerCount: 2
Back
Fore
SplineSet
44 505 m 1
 44 585 l 1
 515 585 l 1
 515 505 l 1
 159 80 l 1
 515 80 l 1
 515 0 l 1
 44 0 l 1
 44 80 l 1
 400 505 l 1
 44 505 l 1
343 655 m 1
 216 655 l 1
 87 790 l 1
 178 790 l 1
 280 707 l 1
 381 790 l 1
 472 790 l 1
 343 655 l 1
EndSplineSet
Validated: 1
EndChar

StartChar: dotlessj
Encoding: 567 567 156
Width: 316
Flags: MW
HStem: -359 80<11 30 28 30> 565 20G<132 220 220 220>
VStem: 132 88<-140 585>
LayerCount: 2
Back
Fore
SplineSet
28 -359 m 2
 -6 -359 -39 -350 -68 -332 c 1
 -24 -261 l 1
 -9 -272 9 -279 28 -279 c 2
 30 -279 l 2
 98 -279 132 -206 132 -140 c 2
 132 585 l 1
 220 585 l 1
 220 -140 l 2
 220 -197 205 -255 167 -298 c 0
 133 -338 82 -359 30 -359 c 2
 28 -359 l 2
EndSplineSet
Validated: 1
EndChar

StartChar: circumflex
Encoding: 710 710 157
Width: 441
Flags: MW
HStem: 765 135<28 284 28 284 157 322 157 413>
LayerCount: 2
Back
Fore
SplineSet
220 848 m 1
 119 765 l 1
 28 765 l 1
 157 900 l 1
 284 900 l 1
 413 765 l 1
 322 765 l 1
 220 848 l 1
EndSplineSet
Validated: 1
EndChar

StartChar: caron
Encoding: 711 711 158
Width: 441
Flags: MW
HStem: 765 135<28 284 28 157>
LayerCount: 2
Back
Fore
SplineSet
284 765 m 1
 157 765 l 1
 28 900 l 1
 119 900 l 1
 220 817 l 1
 322 900 l 1
 413 900 l 1
 284 765 l 1
EndSplineSet
Validated: 1
EndChar

StartChar: breve
Encoding: 728 728 159
Width: 426
Flags: MW
HStem: 729 72<192 214 212 214>
VStem: 64 78<857 877> 284 79<857 877 857 877>
LayerCount: 2
Back
Fore
SplineSet
214 801 m 2
 256 801 284 835 284 877 c 1
 363 877 l 1
 363 837 349 799 321 771 c 0
 293 743 254 729 214 729 c 2
 212 729 l 2
 172 729 133 743 105 771 c 0
 77 799 64 837 64 877 c 1
 142 877 l 1
 142 835 170 801 212 801 c 2
 214 801 l 2
EndSplineSet
Validated: 1
EndChar

StartChar: ring
Encoding: 730 730 160
Width: 353
Flags: MW
HStem: 738 54<148.5 177 176 177> 873 54<164 177 176 177>
VStem: 73 59<820 844 820 845> 221 58<820 844>
LayerCount: 2
Back
Fore
SplineSet
176 738 m 2
 121 738 73 776 73 832 c 0
 73 858 83 883 102 900 c 0
 122 918 149 927 176 927 c 2
 177 927 l 2
 204 927 231 918 251 900 c 0
 270 883 279 858 279 832 c 0
 279 806 270 782 251 765 c 0
 231 747 204 738 177 738 c 2
 176 738 l 2
177 873 m 2
 176 873 l 2
 152 873 132 856 132 832 c 0
 132 808 152 792 176 792 c 2
 177 792 l 2
 201 792 221 808 221 832 c 0
 221 856 201 873 177 873 c 2
EndSplineSet
Validated: 1
EndChar

StartChar: endash
Encoding: 8211 8211 161
Width: 720
Flags: MW
HStem: 252 80<59 662 59 662>
LayerCount: 2
Back
Fore
SplineSet
59 252 m 1
 59 332 l 1
 662 332 l 1
 662 252 l 1
 59 252 l 1
EndSplineSet
Validated: 1
EndChar

StartChar: emdash
Encoding: 8212 8212 162
Width: 1088
Flags: MW
HStem: 252 80<59 1029 59 1029>
LayerCount: 2
Back
Fore
SplineSet
59 252 m 1
 59 332 l 1
 1029 332 l 1
 1029 252 l 1
 59 252 l 1
EndSplineSet
Validated: 1
EndChar

StartChar: visiblespace
Encoding: 9248 9248 163
Width: 588
Flags: MW
HStem: -180 80<117 471 117 559> -180 180<29 117 471 559 29 117>
VStem: 29 88<-100 0 -100 0 -100 0> 471 88<-100 0 -180 0>
LayerCount: 2
Back
Fore
SplineSet
29 0 m 1x70
 117 0 l 1x70
 117 -100 l 1
 471 -100 l 1xb0
 471 0 l 1
 559 0 l 1
 559 -180 l 1
 29 -180 l 1
 29 0 l 1x70
EndSplineSet
Validated: 1
EndChar

